
<svg version="1.0" xmlns="http://www.w3.org/2000/svg"
 width="2519.000000pt" height="1230.000000pt" viewBox="0 0 2519.000000 1230.000000"
 preserveAspectRatio="xMidYMid meet">

<g transform="translate(0.000000,1230.000000) scale(0.100000,-0.100000)"
fill="#000000" stroke="none">
<path d="M6620 12051 c0 -5 -8 -12 -17 -16 -10 -3 -28 -27 -40 -53 -11 -26
-31 -67 -42 -91 -12 -25 -21 -48 -21 -52 0 -5 -11 -24 -24 -44 -40 -58 -146
-284 -146 -309 0 -8 -6 -18 -13 -24 -21 -18 -84 -153 -97 -208 -6 -28 -29 -78
-50 -110 -22 -33 -40 -65 -40 -72 0 -7 -11 -30 -25 -52 -14 -22 -25 -46 -25
-53 0 -8 -22 -32 -48 -55 -27 -22 -49 -47 -49 -55 0 -24 -46 -76 -69 -76 -20
-1 -64 -49 -64 -71 0 -5 -14 -10 -30 -10 -23 0 -33 -6 -40 -25 -5 -14 -14 -25
-19 -25 -5 0 -12 -17 -16 -39 -6 -36 -10 -40 -80 -72 -40 -18 -73 -36 -72 -39
4 -12 -82 -90 -88 -80 -4 6 -19 0 -39 -15 -18 -14 -40 -25 -49 -25 -10 0 -17
-4 -17 -10 0 -5 -16 -17 -36 -26 -20 -9 -38 -23 -41 -30 -2 -7 -10 -11 -16 -9
-7 3 -21 -2 -31 -10 -20 -15 -20 -15 0 -29 10 -8 17 -16 14 -18 -21 -18 -80
-35 -101 -31 -20 4 -31 -1 -46 -21 -12 -14 -44 -36 -71 -49 -28 -13 -57 -29
-64 -35 -8 -6 -27 -11 -43 -10 -50 1 -56 -1 -53 -19 2 -11 -3 -18 -12 -18 -8
0 -22 -8 -31 -17 -9 -10 -28 -16 -45 -15 -21 1 -31 -4 -39 -21 -5 -12 -18 -25
-27 -28 -10 -3 -18 -11 -18 -19 0 -8 -9 -16 -20 -20 -11 -3 -29 -19 -40 -36
-13 -17 -30 -29 -43 -29 -13 0 -54 -9 -92 -20 -60 -16 -98 -19 -262 -17 -184
2 -193 3 -215 24 -16 16 -23 36 -24 73 -2 44 0 50 17 50 14 0 19 5 17 18 -2 9
7 25 20 36 13 10 21 24 18 32 -3 8 8 20 29 30 19 8 41 26 49 40 11 15 22 21
33 17 13 -5 15 -2 9 12 -14 37 51 71 97 51 13 -6 17 -3 17 11 0 10 -4 23 -9
29 -4 5 -4 23 1 42 8 29 18 35 54 31 11 -1 32 35 27 48 -3 7 2 16 11 19 9 3
16 12 16 19 0 7 12 21 26 31 60 44 93 82 87 103 -3 14 -1 21 8 21 23 1 55 34
63 63 3 15 11 27 16 27 6 0 10 7 10 16 0 10 5 14 16 10 8 -3 12 -2 9 4 -9 14
32 50 56 50 25 0 79 55 79 80 0 22 24 43 46 38 9 -2 32 12 51 29 19 18 45 36
59 39 23 6 29 22 26 73 0 8 11 25 24 40 13 14 24 31 24 37 0 14 47 104 66 125
24 27 17 77 -13 104 -16 13 -38 25 -49 25 -26 0 -71 -33 -79 -59 -3 -10 -18
-21 -34 -24 -38 -8 -91 -54 -91 -79 0 -23 -52 -78 -74 -78 -8 0 -17 -9 -21
-19 -3 -11 -17 -27 -31 -36 -14 -9 -29 -27 -34 -40 -5 -13 -24 -32 -42 -41
-47 -24 -67 -44 -61 -60 3 -8 -5 -25 -18 -39 -13 -13 -35 -38 -49 -54 -14 -17
-28 -31 -31 -31 -7 0 -62 -47 -120 -102 -22 -21 -46 -38 -53 -38 -8 0 -18 -13
-24 -28 -5 -16 -32 -52 -58 -81 -27 -29 -68 -87 -91 -129 -23 -42 -50 -81 -60
-87 -10 -5 -23 -18 -30 -27 -7 -9 -26 -29 -41 -45 -17 -18 -26 -36 -24 -51 3
-16 -12 -39 -51 -82 -33 -35 -58 -73 -62 -92 -4 -18 -12 -42 -18 -53 -6 -11
-12 -73 -13 -137 l-3 -118 27 -6 c15 -4 39 -13 53 -20 23 -11 34 -10 83 8 51
18 63 19 103 7 37 -10 46 -10 53 1 7 11 19 11 65 2 45 -9 59 -9 70 1 9 10 32
11 91 5 44 -4 86 -5 96 -2 9 3 19 0 23 -6 6 -10 62 -6 95 8 8 3 22 7 30 8 35
4 116 37 126 50 6 8 33 17 60 20 30 4 85 26 142 56 50 27 92 46 92 42 0 -3 6
-2 13 5 10 8 17 7 27 -2 10 -10 12 -9 7 6 -5 14 0 21 23 29 17 5 30 13 30 17
0 19 71 79 100 84 18 4 50 23 71 42 35 31 115 75 138 75 5 0 13 9 16 20 3 11
18 23 33 26 56 12 63 16 77 44 8 15 25 30 38 34 14 3 27 15 30 26 4 17 10 20
32 14 24 -6 26 -5 19 20 -5 23 -3 26 21 26 31 0 68 18 61 29 -3 5 3 16 14 26
16 15 22 15 35 5 26 -21 18 -68 -16 -99 -22 -21 -29 -34 -25 -48 4 -12 0 -25
-9 -33 -8 -7 -15 -19 -15 -27 0 -8 -9 -26 -20 -40 -23 -29 -26 -55 -7 -52 51
6 56 1 50 -53 -3 -29 -19 -81 -34 -115 -16 -34 -29 -68 -29 -76 0 -8 -11 -31
-25 -51 -14 -20 -25 -50 -25 -66 0 -17 -4 -30 -10 -30 -5 0 -10 -13 -10 -30 0
-16 -5 -30 -11 -30 -8 0 -8 -4 0 -14 10 -12 6 -23 -18 -56 -16 -23 -33 -55
-36 -71 -4 -16 -15 -35 -26 -42 -10 -6 -19 -21 -19 -33 0 -12 -14 -55 -31 -95
-17 -41 -37 -90 -44 -109 -7 -19 -25 -65 -40 -102 -15 -37 -24 -71 -21 -76 3
-5 -8 -36 -24 -68 -16 -33 -30 -69 -30 -81 0 -12 -4 -24 -8 -27 -5 -3 -21 -38
-37 -78 -15 -40 -32 -79 -38 -85 -5 -7 -9 -31 -9 -52 1 -24 -5 -41 -12 -44
-22 -9 -73 -119 -58 -124 17 -6 15 -43 -2 -43 -8 0 -21 -21 -31 -50 -9 -27
-22 -53 -29 -57 -13 -9 -59 -162 -55 -184 2 -8 -12 -44 -29 -80 -18 -36 -32
-71 -32 -77 0 -6 -11 -32 -24 -59 -14 -27 -29 -68 -35 -92 -5 -23 -16 -50 -25
-60 -9 -10 -16 -22 -16 -28 0 -6 -7 -24 -15 -39 -8 -16 -15 -40 -15 -52 0 -24
-29 -82 -41 -82 -4 0 -12 -19 -17 -42 -6 -24 -20 -61 -32 -83 -11 -21 -20 -54
-20 -72 0 -18 -13 -54 -28 -80 -16 -26 -31 -64 -34 -84 -4 -20 -16 -56 -27
-80 -12 -24 -17 -45 -12 -47 14 -5 0 -43 -30 -85 -16 -21 -33 -54 -39 -73 -6
-19 -16 -34 -21 -34 -13 0 -11 -64 2 -77 8 -8 5 -13 -10 -18 -12 -3 -21 -11
-21 -17 0 -5 -11 -32 -24 -58 -15 -30 -20 -50 -14 -52 6 -2 4 -10 -5 -20 -9
-9 -19 -31 -22 -49 -3 -19 -13 -45 -22 -59 -9 -13 -16 -39 -15 -57 1 -18 -3
-33 -9 -33 -5 0 -15 -12 -21 -27 -6 -16 -24 -56 -40 -91 -15 -34 -28 -68 -28
-75 0 -7 -13 -50 -29 -95 -28 -80 -53 -122 -74 -122 -5 0 -24 -16 -43 -35 -18
-19 -42 -35 -53 -35 -22 0 -81 -31 -81 -42 0 -5 -13 -8 -29 -8 -19 0 -36 -9
-52 -29 -21 -25 -49 -40 -86 -47 -7 -1 -20 -9 -29 -18 -14 -15 -29 -20 -38
-13 -1 1 -21 -14 -43 -33 -63 -56 -83 -70 -109 -82 -13 -6 -24 -14 -24 -18 0
-4 -15 -11 -32 -15 -18 -4 -35 -8 -38 -9 -14 -4 -60 -51 -60 -63 0 -7 -7 -13
-15 -13 -9 0 -18 -7 -21 -15 -4 -8 -11 -15 -17 -15 -6 0 -19 -8 -30 -17 -19
-17 -20 -17 -14 0 4 9 2 17 -2 17 -5 0 -11 -6 -14 -14 -3 -7 -18 -17 -34 -21
-38 -9 -53 -23 -46 -42 5 -13 0 -15 -32 -9 -35 7 -37 6 -25 -9 11 -13 10 -18
-6 -30 -10 -8 -36 -20 -56 -26 -21 -7 -38 -16 -38 -21 0 -5 -11 -13 -25 -18
-14 -5 -25 -16 -25 -23 0 -14 -40 -37 -65 -37 -8 0 -15 -5 -15 -10 0 -20 -53
-69 -85 -80 -18 -6 -37 -22 -43 -35 -7 -14 -18 -25 -25 -25 -14 0 -57 -52 -57
-70 0 -5 -9 -10 -20 -10 -11 0 -25 -9 -32 -20 -7 -11 -20 -20 -28 -20 -19 -1
-50 -24 -50 -38 0 -6 -15 -19 -33 -30 -17 -12 -46 -36 -62 -54 -17 -18 -53
-53 -80 -78 -28 -25 -58 -57 -68 -73 -9 -15 -24 -27 -31 -27 -7 0 -37 -25 -66
-55 -30 -30 -57 -52 -60 -50 -8 5 -130 -107 -130 -119 0 -16 -47 -69 -73 -83
-16 -8 -69 -55 -118 -104 -49 -49 -93 -89 -99 -89 -6 0 -8 -5 -5 -11 4 -6 -3
-21 -15 -34 -12 -13 -19 -28 -16 -34 4 -5 -4 -15 -16 -22 -13 -7 -33 -23 -45
-36 -12 -12 -29 -23 -38 -23 -11 0 -15 -7 -13 -22 2 -15 -9 -36 -32 -62 -19
-21 -34 -43 -32 -48 1 -5 -2 -7 -7 -3 -6 3 -15 -3 -20 -14 -8 -15 -7 -23 5
-35 14 -15 13 -16 -8 -16 -27 -1 -69 -30 -52 -37 20 -7 -6 -61 -26 -56 -20 5
-42 -23 -90 -112 -17 -33 -41 -74 -53 -90 -36 -49 -82 -110 -87 -115 -3 -3
-11 -17 -19 -32 -8 -16 -18 -28 -23 -28 -4 0 -8 -8 -8 -19 0 -10 -6 -24 -14
-30 -7 -6 -16 -25 -20 -41 -7 -37 -53 -137 -67 -145 -5 -4 -7 -11 -4 -16 4 -5
2 -9 -3 -9 -5 0 -12 -21 -15 -47 -4 -37 -12 -54 -38 -78 -19 -17 -44 -45 -57
-63 -20 -28 -20 -32 -6 -32 15 0 14 -4 -6 -25 -12 -13 -28 -23 -34 -22 -6 1
-10 -4 -8 -11 4 -21 -25 -80 -53 -108 -29 -29 -45 -64 -51 -108 -2 -17 -13
-39 -24 -51 -11 -11 -22 -37 -24 -56 -3 -18 -5 -36 -6 -39 -4 -11 -7 -26 -8
-47 -2 -16 -7 -20 -24 -15 -19 4 -20 2 -14 -19 8 -23 8 -37 5 -76 -1 -10 -14
-31 -29 -48 -15 -16 -36 -50 -47 -75 -21 -48 -49 -177 -40 -186 8 -8 -13 -64
-24 -64 -5 0 -9 -13 -9 -30 0 -16 -4 -30 -10 -30 -14 0 -12 -37 3 -43 6 -3 2
-6 -10 -6 -31 -1 -40 -21 -9 -21 14 0 26 -3 26 -7 0 -18 -25 -73 -33 -73 -5 0
-6 -8 -3 -17 4 -10 4 -14 0 -11 -4 4 -15 3 -24 -2 -23 -12 -21 -62 3 -90 9
-11 17 -27 17 -35 0 -24 -31 -65 -49 -65 -13 0 -14 -2 -2 -9 19 -12 22 -53 6
-66 -13 -10 -42 -142 -35 -160 2 -5 2 -28 1 -51 -1 -22 5 -53 13 -68 15 -30
11 -59 -10 -77 -19 -15 -18 -29 3 -45 16 -12 16 -15 3 -24 -12 -8 -13 -11 -1
-19 8 -5 11 -16 7 -29 -4 -11 -2 -23 4 -27 5 -3 10 -17 10 -30 0 -37 11 -56
38 -66 23 -9 23 -11 8 -22 -16 -12 -15 -15 8 -40 14 -16 26 -39 26 -52 0 -13
8 -30 19 -37 10 -7 22 -24 26 -38 9 -31 34 -60 51 -60 7 0 23 -12 36 -27 42
-50 89 -83 134 -94 24 -6 49 -17 55 -25 6 -8 22 -14 34 -14 12 0 28 -6 34 -14
6 -8 26 -16 44 -19 143 -25 154 -26 217 -14 36 6 70 12 75 12 6 0 15 6 20 13
6 8 36 15 71 16 74 4 242 76 287 123 12 13 28 23 35 23 7 0 24 11 38 25 14 14
30 23 35 20 5 -4 9 -1 9 4 0 6 5 11 11 11 6 0 36 25 65 55 30 30 58 55 63 55
5 0 14 14 20 30 5 17 20 34 33 39 37 14 72 66 93 136 10 33 16 39 34 37 16 -3
24 3 28 17 3 12 10 21 15 21 15 0 119 111 129 138 5 13 13 21 17 18 13 -8 43
50 36 68 -3 9 -1 16 6 16 18 0 37 23 32 39 -2 7 2 17 9 22 13 8 15 13 18 51 0
10 16 24 35 32 35 14 51 35 57 71 2 11 11 25 19 31 12 10 12 14 1 28 -12 14
-11 16 6 16 21 0 73 49 73 68 0 7 5 12 11 12 6 0 9 7 6 15 -4 8 -2 17 3 20 5
3 7 11 4 18 -2 7 6 26 20 42 14 16 23 32 20 37 -3 4 0 8 5 8 6 0 11 8 11 18 0
9 18 37 40 61 28 31 38 50 34 64 -4 12 2 26 15 38 12 11 21 26 21 34 0 8 6 15
14 15 15 0 26 21 26 50 0 10 7 20 15 24 8 3 15 11 15 18 0 7 12 36 25 63 34
69 33 106 -5 133 -37 28 -38 39 -2 40 39 1 84 20 77 33 -4 6 2 13 14 16 12 3
22 10 22 17 1 6 2 16 3 21 3 22 41 75 54 75 9 0 12 6 8 15 -9 25 5 75 21 75
13 0 13 3 3 15 -11 13 -10 18 5 29 14 10 15 15 5 21 -9 5 -3 12 20 21 22 10
30 19 26 29 -4 11 2 17 22 21 24 5 27 10 29 50 1 35 -2 44 -15 44 -16 1 -15 2
1 14 9 7 17 19 17 25 0 7 5 9 11 5 13 -8 32 18 20 26 -5 3 -11 15 -15 28 -6
16 -3 24 11 29 29 11 33 24 27 95 -5 60 -3 68 15 80 12 7 21 20 21 29 0 9 11
33 25 53 14 20 25 41 25 46 0 5 11 17 24 25 21 14 23 20 16 52 -7 29 -5 41 12
64 12 16 18 36 15 48 -3 12 1 22 9 25 8 3 14 12 14 21 0 8 5 15 11 15 8 0 8 5
-1 15 -10 12 -9 16 4 21 9 3 16 10 16 16 0 5 14 27 32 49 25 31 29 42 19 48
-9 6 -10 14 -5 22 5 8 9 20 10 27 2 8 11 20 21 28 16 13 17 15 2 27 -20 15
-13 36 16 47 18 7 24 19 30 62 4 29 15 59 24 66 15 12 14 13 -1 8 -12 -3 -18
0 -18 9 0 8 -7 15 -16 15 -9 0 -14 6 -11 13 2 6 12 11 21 11 9 -1 16 2 16 8 0
12 31 43 51 50 12 5 15 18 13 53 -3 55 11 91 37 98 15 4 18 14 16 55 -1 36 3
55 16 69 9 11 17 34 17 51 0 24 5 31 23 34 17 2 23 11 25 38 2 19 9 41 15 48
8 11 5 18 -13 33 -29 22 -19 26 13 4 21 -13 23 -12 48 35 20 37 23 50 13 50
-8 0 -14 4 -14 9 0 5 -7 17 -16 25 -14 15 -14 16 2 16 14 0 14 3 3 16 -11 13
-9 14 14 9 19 -5 32 -2 44 11 13 12 14 19 5 22 -17 5 -15 29 4 36 12 5 14 14
10 34 -5 20 -4 23 4 12 7 -11 10 -12 10 -2 0 8 9 25 19 39 16 19 19 34 14 74
-5 40 -3 49 9 49 9 0 18 9 21 20 3 11 13 20 22 20 14 0 16 7 10 41 -6 36 -5
41 14 46 22 6 30 46 11 58 -15 9 -1 27 16 21 10 -4 16 4 21 25 3 16 14 34 24
40 23 12 25 37 4 45 -21 9 -19 18 14 53 27 29 29 36 26 96 -2 49 1 65 12 69 8
3 13 11 11 18 -2 6 4 20 14 30 10 10 18 26 18 36 0 9 9 23 21 30 11 7 19 21
17 31 -3 21 28 61 47 61 18 0 25 24 18 64 -4 29 -2 36 11 36 17 0 30 37 24 67
-4 18 30 53 51 53 6 0 11 3 11 8 0 13 68 45 80 37 6 -4 17 -2 24 4 7 6 32 9
56 7 35 -3 43 0 47 15 3 10 9 16 14 13 5 -3 12 2 15 10 4 10 18 16 35 16 30 0
36 9 19 26 -6 6 6 10 35 12 25 1 58 8 75 17 19 10 57 15 107 15 66 0 81 3 96
20 13 16 29 20 77 20 35 0 74 7 90 15 21 11 36 12 54 5 14 -5 26 -6 26 -2 0
10 22 12 130 15 47 1 91 6 99 11 8 5 7 -1 -4 -18 -10 -15 -26 -31 -36 -37 -11
-5 -19 -16 -19 -24 0 -8 -8 -15 -19 -15 -10 0 -25 -7 -32 -16 -7 -9 -23 -20
-36 -25 -16 -6 -23 -17 -23 -34 0 -15 -12 -35 -29 -51 -17 -15 -33 -39 -36
-54 -4 -20 -22 -38 -64 -64 -43 -26 -60 -44 -67 -67 -5 -18 -18 -37 -29 -43
-37 -20 -85 -75 -87 -98 -2 -42 -3 -47 -11 -54 -4 -4 -7 -16 -7 -26 0 -10 -4
-18 -10 -18 -5 0 -10 -5 -10 -10 0 -6 -9 -23 -21 -39 -18 -25 -19 -32 -8 -74
6 -26 15 -44 20 -41 5 3 9 -4 9 -15 0 -12 -7 -21 -16 -21 -11 0 -14 -8 -12
-32 2 -21 8 -33 18 -33 10 0 15 -11 16 -33 1 -37 28 -72 56 -72 10 0 18 -6 18
-12 1 -30 16 -41 40 -28 19 10 22 10 18 -1 -10 -27 10 -59 38 -59 15 0 35 -9
45 -21 20 -24 120 -42 157 -28 24 9 72 -4 72 -20 0 -5 11 -4 25 2 14 7 25 18
25 25 0 14 16 16 24 3 3 -5 21 -9 39 -8 29 1 33 4 29 24 -5 27 0 28 34 7 l25
-17 -7 42 c-6 39 -5 41 18 41 13 0 30 -6 36 -12 15 -15 58 -21 112 -16 22 3
24 42 3 60 -21 17 -15 25 16 24 22 -1 27 -4 19 -13 -7 -9 -7 -17 1 -26 6 -8 8
-17 4 -20 -3 -4 3 -7 15 -7 24 0 38 15 22 25 -13 8 -13 45 0 45 6 0 10 -9 10
-20 0 -11 6 -20 14 -20 20 0 25 33 6 47 -13 11 -12 12 9 13 13 0 41 5 62 12
35 10 39 14 39 45 0 39 15 48 54 33 24 -9 27 -8 22 5 -3 8 -8 21 -11 28 -3 6
-1 18 4 26 8 12 15 13 35 3 17 -7 27 -8 32 -1 4 6 15 4 30 -6 22 -14 24 -14
24 3 0 10 -6 27 -14 38 -13 16 -18 17 -35 7 -24 -15 -37 -1 -16 17 8 7 18 31
22 53 6 39 6 39 19 16 10 -20 10 -25 -2 -32 -23 -13 -5 -29 26 -22 16 4 31 2
35 -5 3 -5 12 -7 18 -3 7 4 4 -5 -6 -21 -21 -31 -20 -33 8 -38 15 -2 21 3 23
20 3 19 6 21 18 11 11 -9 15 -6 20 19 6 30 7 31 58 28 67 -4 63 -3 69 -26 4
-17 11 -19 31 -14 18 4 28 2 31 -9 8 -18 96 -18 103 1 6 18 18 15 49 -13 42
-37 45 -39 87 -54 34 -12 40 -11 48 2 7 13 14 14 35 6 15 -5 33 -7 41 -4 8 3
20 1 26 -4 15 -12 27 -4 45 31 14 26 14 26 35 7 11 -11 22 -15 24 -9 2 5 9 10
16 10 15 0 19 55 6 80 -18 33 9 24 28 -9 14 -25 21 -29 54 -26 20 1 44 10 53
19 9 9 30 16 46 16 17 0 28 5 27 12 -2 7 4 12 12 13 23 0 60 24 60 38 0 7 14
21 30 32 19 12 30 29 30 43 l0 23 22 -21 c29 -27 40 -25 32 5 -5 19 -2 25 9
25 9 0 18 -4 22 -9 6 -11 44 -9 63 3 7 4 12 16 12 27 0 12 5 19 13 16 6 -2 11
-12 11 -21 -3 -28 12 -18 26 19 8 19 17 35 22 35 4 0 8 4 8 9 0 5 16 26 35 45
19 20 35 46 35 59 0 17 2 19 9 8 8 -12 12 -12 25 -2 13 11 19 11 31 1 8 -6 18
-9 23 -6 15 9 1 55 -21 71 l-21 15 22 0 c14 0 26 -8 32 -22 6 -17 9 -18 9 -6
1 9 15 25 31 35 17 9 30 20 30 24 0 3 17 6 37 7 46 2 62 16 34 31 -22 12 -29
41 -11 41 6 0 33 -12 61 -26 28 -14 58 -23 66 -19 13 4 15 -1 10 -33 -6 -31
-2 -42 18 -65 15 -15 31 -24 40 -21 19 8 33 -25 15 -36 -9 -6 -6 -18 13 -53
l25 -45 -26 -5 c-15 -3 -28 -1 -30 4 -5 13 -22 11 -22 -3 0 -7 7 -26 15 -42
20 -38 19 -46 -5 -46 -11 0 -20 -7 -20 -15 0 -8 9 -20 20 -27 15 -10 20 -24
20 -54 0 -41 1 -42 31 -40 36 1 36 2 39 -114 2 -92 3 -90 -26 -90 -18 0 -25
-4 -21 -14 4 -9 -9 -25 -34 -41 -22 -16 -39 -36 -39 -47 0 -15 -5 -18 -20 -13
-25 8 -59 -28 -60 -62 0 -16 -4 -21 -15 -16 -9 3 -24 -2 -35 -12 -10 -9 -24
-14 -30 -10 -6 4 -29 -7 -50 -24 -37 -29 -80 -41 -80 -22 0 18 -34 22 -46 6
-9 -13 -19 -14 -45 -8 -33 9 -53 33 -27 33 19 0 55 43 40 48 -9 3 -9 9 -1 24
7 12 7 23 2 27 -13 8 -16 81 -4 81 5 0 16 -9 25 -21 l14 -21 12 22 c6 12 8 34
5 52 l-7 30 30 -22 c39 -29 88 -21 95 16 5 27 -12 40 -38 30 -11 -4 -15 1 -15
19 0 19 5 25 23 25 13 0 28 -5 34 -11 8 -8 14 -5 22 10 15 27 41 27 48 1 3
-12 11 -19 17 -17 16 5 20 46 5 63 -10 13 -10 17 2 25 21 13 29 11 23 -6 -4
-10 0 -15 10 -15 9 0 19 7 22 15 7 17 34 21 34 5 0 -5 5 -10 12 -10 6 0 9 3 5
6 -3 3 -2 16 3 29 6 15 4 31 -6 50 -8 15 -14 34 -14 42 0 12 -3 12 -21 -1 -14
-9 -33 -13 -51 -9 -19 4 -41 -1 -63 -13 -35 -19 -39 -24 -36 -56 1 -10 -3 -18
-8 -18 -10 0 -15 14 -12 33 2 16 -30 6 -72 -23 -25 -16 -53 -30 -62 -30 -11 0
-15 -5 -11 -15 3 -8 9 -22 12 -30 4 -9 -1 -18 -12 -22 -10 -4 -19 -2 -22 5 -5
17 -42 15 -42 -3 0 -9 -9 -15 -25 -15 -18 0 -28 -7 -35 -25 -7 -18 -17 -25
-35 -25 -15 0 -34 -11 -48 -26 -12 -15 -28 -32 -34 -40 -7 -7 -13 -22 -13 -33
0 -12 -4 -21 -10 -21 -15 0 -12 -64 5 -86 8 -10 15 -33 15 -50 0 -32 45 -124
60 -124 5 0 16 -3 26 -7 13 -5 16 -3 11 9 -3 10 0 19 9 22 30 12 42 6 48 -25
6 -32 12 -33 59 -14 13 6 17 2 17 -18 0 -13 7 -30 15 -37 13 -11 19 -10 35 7
19 21 19 21 -3 27 -20 6 -20 7 -5 17 13 7 24 5 43 -7 30 -20 41 -14 25 15 -6
12 -7 21 -1 21 11 0 24 -47 16 -60 -3 -5 14 -8 37 -6 24 2 51 -1 60 -6 13 -6
21 2 43 47 14 30 28 55 32 55 3 0 12 -8 19 -17 8 -11 13 -13 14 -5 0 6 11 12
25 12 19 0 25 5 25 21 0 18 5 20 26 16 23 -4 25 -2 21 19 -6 31 24 58 58 52
14 -3 28 -1 31 3 3 5 -1 9 -9 9 -8 0 -20 7 -28 16 -10 13 -10 17 2 25 23 14
36 10 42 -12 8 -32 29 -12 25 24 -2 23 1 31 10 29 8 -1 16 7 19 18 6 23 23 27
23 6 0 -7 7 -19 15 -26 12 -10 16 -9 22 6 4 10 2 19 -5 22 -26 8 0 82 30 82
10 0 18 5 18 10 0 6 5 10 11 10 5 0 8 -4 5 -9 -6 -10 19 -23 27 -14 3 3 1 16
-4 30 -9 24 -8 25 18 18 16 -4 25 -4 21 0 -7 7 1 39 30 111 l21 52 -21 37
c-12 25 -18 49 -15 69 3 19 -1 37 -10 48 -13 15 -12 18 16 33 42 21 39 40 -9
61 -28 12 -46 30 -61 58 -12 22 -32 53 -45 69 -13 16 -24 32 -24 37 0 5 -12
21 -28 37 -15 15 -36 48 -46 73 -10 25 -28 68 -40 95 -18 40 -21 59 -15 95 4
25 5 58 2 74 -4 23 -2 28 10 23 9 -3 18 1 21 9 8 22 7 26 -4 19 -6 -4 -9 14
-6 47 2 42 6 53 19 52 30 -3 27 129 -4 162 -23 25 -25 44 -2 44 15 0 15 1 0
18 -10 10 -17 26 -17 34 0 17 -26 31 -41 22 -5 -3 -9 1 -9 8 0 9 -3 9 -8 2
-13 -19 -42 -24 -63 -11 -17 10 -22 9 -30 -5 -6 -10 -16 -18 -23 -18 -8 0 -19
-19 -25 -44 -6 -24 -17 -49 -26 -56 -8 -6 -17 -28 -21 -49 -4 -20 -11 -41 -16
-48 -5 -7 -6 -18 -2 -25 12 -19 15 -68 4 -68 -5 0 -16 -15 -24 -34 -9 -23 -20
-34 -33 -33 -14 2 -17 -4 -15 -26 2 -22 -2 -30 -17 -34 -23 -6 -27 -18 -11
-28 6 -3 10 -1 10 4 0 6 9 11 19 11 15 0 19 -7 19 -34 0 -21 -6 -37 -15 -40
-17 -7 -10 -41 15 -68 14 -16 14 -18 -1 -18 -20 0 -54 73 -37 78 15 5 12 29
-5 36 -9 3 -18 -1 -21 -9 -4 -8 -15 -15 -25 -15 -10 0 -19 -3 -19 -7 1 -14 24
-39 48 -52 12 -6 22 -21 22 -33 0 -20 -1 -20 -20 -3 -12 11 -29 16 -45 13 -29
-6 -42 7 -26 25 13 17 -30 74 -48 63 -7 -4 -10 -13 -8 -19 5 -16 -34 -57 -54
-57 -13 0 -16 -6 -12 -22 5 -19 3 -21 -8 -10 -16 15 -49 16 -49 2 0 -6 6 -13
14 -16 8 -3 12 -12 9 -20 -3 -9 -11 -13 -19 -10 -7 3 -18 -2 -24 -10 -7 -8
-21 -14 -32 -14 -17 0 -18 -3 -8 -15 17 -20 36 -19 52 3 16 22 48 28 48 9 0
-18 -24 -39 -33 -30 -4 3 -7 -1 -7 -10 0 -9 -5 -17 -10 -17 -6 0 -8 -10 -5
-23 6 -22 3 -24 -39 -25 -35 -2 -46 1 -46 13 0 9 8 14 22 12 17 -1 24 4 26 21
3 22 -12 30 -23 12 -4 -6 -21 -8 -42 -4 -30 6 -35 4 -30 -9 3 -9 1 -18 -6 -21
-9 -3 -9 -7 0 -13 9 -6 4 -14 -17 -27 -39 -22 -38 -32 5 -57 19 -12 35 -24 35
-29 0 -10 -83 -21 -93 -11 -4 4 -3 20 4 34 15 33 -1 57 -37 57 -24 0 -33 -23
-14 -35 6 -4 0 -15 -14 -26 -20 -16 -30 -18 -45 -10 -11 6 -30 11 -43 10 -13
0 -17 -3 -10 -6 7 -3 18 -16 23 -30 6 -16 14 -23 24 -19 24 9 17 -8 -12 -29
-14 -11 -32 -26 -39 -32 -17 -17 -23 1 -16 45 5 36 -16 47 -25 12 -6 -22 -60
-53 -75 -44 -6 4 -14 1 -18 -6 -7 -12 -40 -16 -69 -9 -7 2 -16 -2 -18 -8 -3
-7 2 -13 11 -13 9 0 13 -6 10 -14 -7 -18 -74 -29 -91 -14 -11 9 -12 7 -6 -8 3
-10 11 -22 16 -25 5 -4 6 -12 2 -19 -4 -7 -10 -8 -14 -4 -3 5 -21 17 -39 27
-39 22 -61 14 -36 -14 14 -16 15 -21 4 -35 -12 -14 -15 -13 -31 7 -10 13 -15
27 -13 31 3 4 0 8 -7 8 -7 0 -9 -10 -7 -24 3 -16 0 -27 -9 -30 -25 -10 -33 -7
-26 10 4 11 2 15 -7 12 -11 -3 -23 -18 -37 -46 -1 -2 -13 -5 -27 -6 -18 -2
-26 1 -26 13 0 12 -12 17 -47 19 -26 2 -51 8 -55 15 -13 20 -9 54 7 67 8 7 15
21 15 31 0 10 10 23 21 30 16 8 18 13 9 19 -9 5 0 14 26 26 22 10 41 21 44 24
3 4 15 12 28 19 19 10 20 15 11 32 -11 21 -6 50 8 48 23 -4 33 4 33 25 0 21 5
25 38 28 36 3 37 4 39 43 4 66 7 85 15 85 4 0 15 14 23 30 15 29 42 33 31 4
-3 -7 -1 -16 3 -19 16 -9 41 74 40 133 -1 31 -3 49 -6 40 -5 -21 -26 -23 -42
-5 -12 15 3 37 25 37 19 0 24 25 17 82 -8 68 -35 91 -52 46 l-9 -23 -10 26
c-16 40 -42 45 -55 10 -9 -26 -15 -29 -39 -24 -23 4 -32 0 -51 -23 -12 -16
-21 -35 -19 -42 4 -18 -48 -71 -70 -72 -11 0 -18 -8 -18 -20 0 -14 -7 -20 -21
-20 -15 0 -19 -5 -15 -15 3 -8 0 -15 -7 -15 -7 0 -21 -17 -32 -38 -15 -27 -26
-36 -40 -34 -11 2 -22 7 -25 10 -9 12 -49 32 -63 32 -7 0 -26 13 -42 30 -19
20 -42 31 -71 36 -24 3 -49 12 -55 20 -6 8 -17 14 -24 14 -7 0 -28 11 -48 24
-24 17 -57 26 -104 31 -73 8 -90 16 -104 52 -4 12 -18 29 -31 37 -29 18 -113
27 -145 15 -18 -7 -28 -5 -39 6 -9 8 -25 16 -37 16 -83 4 -105 3 -125 -10 -12
-7 -34 -11 -49 -8 -15 3 -43 -1 -63 -9 -19 -8 -59 -16 -88 -17 -32 -2 -57 -9
-62 -17 -5 -8 -21 -15 -37 -16 -34 -1 -53 -8 -118 -39 -40 -20 -71 -26 -159
-30 -60 -3 -114 -9 -120 -14 -6 -4 -29 -14 -51 -21 -22 -7 -44 -15 -50 -19 -5
-3 -18 -4 -28 -2 -10 1 -26 -4 -35 -12 -28 -23 -46 -32 -37 -17 6 10 1 11 -21
6 -16 -4 -34 -7 -41 -8 -7 -1 -14 -7 -17 -13 -2 -6 -30 -17 -62 -25 -33 -7
-65 -18 -71 -23 -9 -6 -13 -6 -13 2 0 7 -5 9 -11 5 -8 -5 -9 6 -5 37 4 24 8
58 9 74 1 17 10 37 20 46 9 9 17 23 17 32 0 9 5 19 10 22 14 9 12 82 -2 89 -7
3 -3 3 9 0 17 -4 20 -1 17 14 -3 10 4 29 16 43 12 13 19 19 16 12 -4 -6 -2
-14 4 -18 5 -3 10 3 10 15 0 11 7 23 15 26 16 7 21 44 5 44 -5 0 -7 7 -4 15 4
8 17 15 30 15 27 0 32 21 10 39 -16 13 -27 61 -15 61 5 0 9 6 9 13 0 15 54 49
64 40 4 -4 5 28 3 70 -4 64 -2 77 9 73 9 -3 14 2 14 14 0 11 6 20 14 20 16 0
26 30 26 77 0 18 3 32 8 30 4 -1 20 8 35 19 27 22 37 67 17 79 -6 3 1 18 15
33 28 30 32 57 10 66 -16 6 -21 36 -6 36 6 0 17 -10 25 -22 18 -26 21 -12 6
28 -8 21 -7 31 4 43 10 11 13 31 10 63 -5 49 7 68 31 48 15 -13 20 -7 29 37 4
18 3 34 -3 38 -6 3 -11 11 -11 17 0 6 7 5 17 -3 15 -13 16 -11 10 13 -8 29 20
92 51 116 13 10 14 16 5 30 -8 14 -7 26 3 51 8 18 11 37 8 42 -3 5 0 9 6 9 6
0 8 5 5 10 -3 6 1 13 9 16 9 3 16 14 16 23 1 19 25 53 32 45 3 -3 8 7 12 21 4
14 11 25 16 25 6 0 10 14 10 30 0 17 -4 30 -8 30 -5 0 -9 16 -10 36 -1 20 1
34 5 31 6 -7 44 37 47 56 1 6 9 26 17 43 9 16 12 37 8 45 -40 80 -45 119 -15
119 12 0 30 -34 27 -52 -1 -5 4 -8 10 -8 7 0 8 7 4 18 -12 32 -10 36 23 33 18
-1 32 2 32 8 0 6 -6 11 -14 11 -24 0 -28 18 -12 47 8 16 17 36 20 46 3 10 10
15 16 12 5 -3 10 0 10 9 0 8 2 21 5 28 3 8 -3 23 -14 35 -21 22 -18 33 7 33 8
0 29 12 46 28 28 25 30 30 19 52 -8 16 -9 28 -2 36 6 8 3 13 -11 17 -28 7 -25
27 5 27 18 0 25 5 25 20 0 11 -4 20 -10 20 -5 0 -10 9 -10 21 0 14 5 19 14 16
8 -3 27 -2 43 2 23 6 28 13 29 38 1 22 -3 30 -12 26 -18 -7 -18 13 -1 24 7 4
20 20 30 36 10 15 24 27 32 27 18 0 20 41 3 58 -9 9 -6 14 13 21 l24 10 -22 7
c-32 9 -29 23 7 35 28 10 34 22 31 60 -1 9 5 19 14 22 17 7 21 37 5 37 -5 0
-10 -5 -10 -12 0 -8 -3 -9 -10 -2 -7 7 -8 19 -1 38 9 23 13 25 30 14 11 -7 24
-9 28 -4 4 5 1 13 -8 19 -13 8 -14 15 -5 39 6 15 14 28 18 28 4 0 8 5 8 11 0
7 15 30 34 53 26 32 32 48 29 71 -3 21 2 37 16 52 12 12 21 31 21 42 0 11 5
23 11 26 6 5 4 11 -6 19 -15 11 -15 13 -1 25 9 8 16 20 16 27 0 8 7 14 15 14
10 0 15 10 15 29 0 16 6 31 15 35 8 3 15 18 15 34 0 16 12 42 30 62 33 40 36
50 15 50 -14 0 -16 32 -3 46 4 3 4 12 1 20 -3 8 2 16 10 20 9 3 19 20 22 37
12 60 16 69 31 63 9 -3 12 -1 9 4 -3 6 -1 10 4 10 14 0 14 40 1 60 -7 11 -2
21 17 37 18 16 27 35 30 65 2 23 9 51 17 63 7 11 19 38 26 60 7 22 16 44 21
49 5 6 9 18 9 28 0 10 5 15 13 13 9 -4 12 12 12 62 0 70 18 123 42 123 7 0 13
9 13 19 0 11 6 21 13 24 9 3 9 7 -1 19 -10 12 -10 17 -1 20 7 2 13 11 15 19 8
42 66 184 78 191 9 5 14 24 14 53 0 30 7 53 21 71 12 15 21 32 21 39 0 6 9 22
20 35 11 13 20 31 20 41 0 10 5 21 11 24 6 4 8 14 5 22 -6 14 0 23 35 62 18
20 32 61 35 106 1 16 7 31 13 33 6 2 11 10 11 18 0 14 27 63 41 74 3 3 14 31
23 62 12 41 25 63 46 78 17 12 30 29 30 39 0 9 4 21 8 27 5 5 15 29 22 54 15
46 17 55 19 78 0 7 12 17 25 23 21 10 24 17 20 48 -13 97 -14 101 -39 107 -14
3 -25 12 -25 19 0 7 -7 16 -16 19 -22 9 -34 7 -34 -3z m-855 -2511 c3 -5 -1
-10 -9 -10 -9 0 -16 5 -16 10 0 6 4 10 9 10 6 0 13 -4 16 -10z m-238 -582 c-3
-8 -6 -5 -6 6 -1 11 2 17 5 13 3 -3 4 -12 1 -19z m2486 -2674 c11 -11 -3 -24
-18 -18 -8 4 -12 10 -9 15 6 11 18 12 27 3z m-1285 -86 c-4 -28 -24 -34 -31
-9 -6 22 0 31 20 31 9 0 13 -8 11 -22z m-571 -23 c17 -9 38 -27 47 -40 13 -20
22 -24 41 -19 26 6 46 -7 58 -40 6 -15 5 -17 -6 -8 -27 22 -26 -1 1 -39 21
-30 36 -40 65 -45 42 -7 57 -22 36 -35 -20 -12 -31 -11 -23 3 4 7 3 8 -4 4 -7
-4 -12 -16 -12 -27 0 -18 -2 -18 -22 -5 -14 8 -38 12 -60 9 -39 -5 -49 -17
-23 -27 8 -3 15 -13 15 -23 0 -14 9 -19 40 -21 22 -1 40 2 40 8 0 5 7 10 15
10 13 0 15 -9 9 -52 -6 -45 -5 -51 9 -45 12 5 17 1 17 -13 0 -11 -4 -20 -10
-20 -5 0 -10 -9 -10 -20 0 -11 -7 -20 -15 -20 -19 0 -59 -77 -43 -82 8 -3 8
-10 -1 -26 -6 -12 -17 -19 -25 -16 -7 3 -16 -2 -19 -10 -4 -9 -14 -16 -22 -16
-18 0 -108 -50 -113 -62 -2 -4 -9 -8 -16 -8 -7 0 -22 -13 -34 -30 -13 -16 -32
-30 -42 -30 -11 0 -28 -9 -37 -20 -10 -11 -27 -20 -40 -20 -12 0 -26 -6 -30
-12 -4 -7 -24 -22 -43 -32 -19 -10 -44 -27 -55 -37 -12 -10 -35 -22 -53 -25
-18 -4 -29 -11 -25 -17 4 -6 1 -7 -6 -2 -12 7 -81 -23 -81 -36 0 -3 -21 -9
-46 -13 -26 -3 -52 -10 -59 -16 -36 -30 -201 -3 -235 39 -3 4 -18 11 -35 16
-21 7 -31 18 -33 35 -2 14 -8 30 -12 35 -18 22 -21 82 -7 118 16 37 12 91 -4
65 -7 -11 -11 -10 -19 2 -15 22 -13 26 23 49 17 11 28 21 24 21 -4 0 -3 9 3
21 9 16 17 19 41 14 25 -6 29 -3 30 14 1 12 3 26 4 31 1 6 3 14 4 20 0 5 7 9
14 7 7 -1 11 7 9 21 -4 24 7 29 25 11 20 -20 36 1 29 41 -5 32 -3 38 11 36 10
0 18 5 19 12 1 6 2 17 3 22 0 6 7 10 14 10 21 0 48 35 41 53 -8 21 22 35 69
32 31 -2 42 3 62 27 13 15 28 28 33 28 5 0 12 9 15 21 4 16 12 20 34 17 23 -2
28 1 27 18 0 16 4 20 18 16 10 -2 18 0 18 6 0 19 95 70 144 77 27 4 58 12 68
18 16 10 22 9 33 -7 14 -18 16 -18 42 12 33 37 31 36 70 17z m531 -17 c-4 -27
-28 -36 -28 -10 0 20 8 32 22 32 5 0 8 -10 6 -22z m1569 -40 c-3 -8 -6 -5 -6
6 -1 11 2 17 5 13 3 -3 4 -12 1 -19z m-1887 -19 c0 -5 -4 -9 -10 -9 -5 0 -10
7 -10 16 0 8 5 12 10 9 6 -3 10 -10 10 -16z m1470 -28 c8 -15 7 -19 -6 -17
-22 3 -40 36 -20 36 8 0 20 -9 26 -19z m250 4 c10 -12 10 -15 -4 -15 -9 0 -16
7 -16 15 0 8 2 15 4 15 2 0 9 -7 16 -15z m-2590 -5 c0 -5 -6 -10 -12 -10 -10
0 -10 -2 0 -9 10 -6 8 -10 -9 -14 -32 -8 -43 14 -16 29 28 15 37 16 37 4z
m2280 -46 c0 -14 -12 -19 -23 -8 -9 9 4 35 14 28 5 -3 9 -12 9 -20z m-2340
-114 c0 -5 -4 -10 -10 -10 -5 0 -10 5 -10 10 0 6 5 10 10 10 6 0 10 -4 10 -10z
m860 -10 c0 -5 -5 -10 -11 -10 -5 0 -7 5 -4 10 3 6 8 10 11 10 2 0 4 -4 4 -10z
m-2140 -34 c0 -2 -7 -6 -15 -10 -8 -3 -15 -1 -15 4 0 6 7 10 15 10 8 0 15 -2
15 -4z m3528 -49 c2 -10 -3 -17 -12 -17 -9 0 -16 2 -16 4 0 2 -3 12 -6 21 -5
13 -2 16 12 13 10 -2 20 -11 22 -21z m-273 -27 c3 -5 1 -10 -4 -10 -6 0 -11 5
-11 10 0 6 2 10 4 10 3 0 8 -4 11 -10z m-3255 -20 c0 -5 -5 -10 -11 -10 -5 0
-7 5 -4 10 3 6 8 10 11 10 2 0 4 -4 4 -10z m3222 -22 c-9 -9 -12 -7 -12 12 0
19 3 21 12 12 9 -9 9 -15 0 -24z m128 22 c0 -5 -4 -10 -10 -10 -5 0 -10 5 -10
10 0 6 5 10 10 10 6 0 10 -4 10 -10z m800 -24 c-7 -10 -8 -16 0 -21 5 -3 10
-11 10 -18 0 -6 -7 -4 -17 5 -14 15 -15 21 -3 45 7 17 14 23 17 15 3 -7 0 -19
-7 -26z m-4189 9 c43 -3 62 -12 53 -27 -4 -6 -10 -5 -16 3 -7 10 -8 9 -4 -5 4
-11 0 -26 -9 -36 -9 -10 -18 -41 -20 -70 -3 -38 -12 -65 -33 -94 -38 -55 -55
-100 -47 -126 4 -14 -2 -40 -18 -73 -31 -67 -40 -88 -43 -107 -3 -21 -45 -133
-55 -146 -4 -5 -6 -19 -3 -30 3 -12 -5 -30 -23 -49 -39 -40 -51 -73 -45 -118
3 -31 0 -41 -17 -53 -21 -15 -24 -45 -8 -71 5 -9 3 -13 -7 -13 -9 0 -16 -4
-16 -10 0 -5 -10 -20 -22 -32 -13 -13 -30 -52 -40 -90 -9 -38 -29 -83 -42
-101 -18 -23 -22 -37 -15 -44 10 -10 -3 -91 -21 -125 -6 -9 -7 -32 -3 -49 4
-23 3 -30 -5 -25 -32 19 -77 -77 -74 -158 1 -16 -4 -38 -10 -50 -7 -11 -11
-32 -9 -47 1 -18 -5 -29 -23 -39 -18 -9 -26 -22 -26 -41 0 -15 -5 -29 -10 -31
-6 -2 -12 -14 -15 -27 -2 -12 -8 -28 -13 -35 -6 -6 -13 -31 -17 -56 -4 -25
-16 -54 -26 -66 -11 -12 -22 -34 -25 -49 -6 -33 -32 -97 -42 -105 -11 -8 -32
-48 -32 -61 0 -6 6 -17 14 -25 19 -18 9 -52 -18 -60 -32 -11 -45 -34 -35 -67
8 -27 -3 -62 -23 -78 -15 -11 -68 -123 -68 -144 0 -11 -6 -27 -12 -34 -9 -10
-10 -15 -2 -18 6 -2 20 -11 30 -19 10 -9 13 -12 5 -8 -9 4 -12 2 -9 -7 5 -14
-4 -29 -36 -57 -37 -34 -66 -91 -66 -131 0 -31 -4 -41 -20 -46 -35 -11 -70
-63 -70 -105 0 -21 -7 -50 -14 -66 -8 -15 -13 -31 -11 -35 3 -4 -2 -20 -10
-35 -8 -16 -15 -36 -15 -45 0 -8 -16 -33 -35 -55 -19 -21 -35 -50 -35 -63 0
-13 -13 -40 -30 -61 -16 -20 -35 -59 -42 -86 -7 -27 -24 -63 -38 -80 -15 -17
-32 -53 -39 -80 -16 -60 -43 -124 -51 -124 -4 0 -12 -18 -19 -41 -7 -23 -14
-39 -17 -36 -13 13 -66 -59 -105 -141 -37 -77 -47 -91 -63 -86 -15 5 -18 3
-12 -11 3 -10 -2 -27 -14 -43 -12 -15 -41 -54 -65 -87 -24 -33 -51 -67 -60
-76 -8 -9 -15 -22 -15 -30 0 -9 -9 -25 -20 -37 -23 -24 -26 -42 -7 -42 9 0 9
-2 -1 -9 -14 -8 -32 -37 -51 -77 -11 -25 -67 -74 -84 -74 -7 0 -18 -13 -25
-28 -7 -17 -40 -46 -82 -73 -42 -27 -70 -51 -70 -61 0 -10 -7 -18 -15 -18 -9
0 -18 -7 -21 -15 -4 -9 -25 -27 -48 -40 -22 -13 -50 -38 -61 -55 -11 -17 -31
-37 -45 -45 -35 -19 -70 -50 -70 -64 0 -6 -6 -11 -12 -11 -15 0 -91 -37 -128
-62 -14 -9 -55 -24 -92 -32 -38 -9 -85 -23 -105 -32 -25 -11 -72 -18 -137 -20
-97 -2 -100 -2 -125 25 -15 16 -54 36 -94 49 -63 20 -97 41 -97 57 0 3 -33 40
-74 82 -41 41 -75 83 -75 92 0 9 -5 41 -10 71 -8 41 -7 56 2 62 9 6 8 11 -5
19 -28 16 -43 50 -27 60 11 6 11 12 0 33 -9 16 -12 43 -9 77 4 34 0 65 -9 88
-13 30 -13 47 -4 106 7 38 19 77 27 86 12 13 13 22 5 36 -7 14 -6 27 4 47 8
14 12 33 8 42 -3 8 2 23 11 33 9 10 13 21 10 24 -4 4 -2 13 5 21 18 22 33 113
31 194 -1 50 2 72 11 72 8 0 10 14 7 44 -4 35 -2 43 8 39 10 -3 16 5 20 26 4
17 10 31 15 31 5 0 6 7 3 15 -4 9 4 23 19 36 16 11 24 26 20 34 -3 9 3 31 12
51 14 30 15 40 5 60 -7 12 -10 30 -6 39 4 10 2 14 -5 9 -7 -4 -9 1 -5 15 3 11
9 30 12 41 3 12 0 27 -6 35 -8 9 -8 15 -2 15 6 0 13 -6 16 -12 4 -7 4 -3 2 10
-3 16 1 23 18 28 20 5 56 66 56 94 0 6 6 10 13 10 20 0 61 47 48 55 -17 10
-13 25 7 25 25 1 56 49 59 95 2 22 4 46 5 52 1 7 8 15 17 18 24 7 72 90 75
129 2 18 15 49 30 68 14 19 26 42 26 51 0 24 32 87 45 87 6 0 17 20 24 45 7
25 17 45 21 45 5 0 12 10 16 23 3 12 14 29 23 38 32 32 61 69 61 79 0 5 22 33
50 61 29 30 54 67 60 88 5 20 19 42 30 49 11 7 20 19 20 27 0 8 13 21 30 30
16 8 34 24 40 35 6 11 16 17 22 14 7 -5 9 0 6 14 -4 12 -2 22 3 22 4 0 6 7 3
15 -4 8 -1 15 6 15 31 0 68 82 50 111 -10 15 47 72 63 62 6 -4 7 -1 3 6 -5 7
0 21 10 32 9 10 22 29 28 42 7 13 23 23 39 25 24 3 28 7 25 30 -2 22 1 27 17
25 18 -1 55 31 55 49 0 5 5 6 11 3 6 -4 13 2 16 13 3 11 11 23 19 26 8 3 14
12 14 21 0 8 6 15 14 15 8 0 18 9 21 21 4 12 12 18 21 15 7 -3 13 -2 12 2 -1
4 2 15 6 25 9 18 36 24 36 7 0 -5 5 -10 10 -10 15 0 12 48 -2 53 -21 7 -2 19
36 24 19 2 37 -1 41 -7 10 -17 25 -11 25 10 0 11 5 20 11 20 6 0 8 9 4 21 -5
15 -4 19 4 15 6 -4 20 -4 31 -1 18 6 19 8 4 31 -15 21 -15 24 -1 18 10 -3 18
2 22 15 3 12 11 21 17 21 6 0 18 8 27 19 9 10 27 21 39 26 17 5 22 12 19 26
-3 10 -1 19 4 19 5 0 9 5 9 12 0 14 60 69 103 96 19 11 26 23 23 35 -3 13 3
21 21 28 13 5 31 16 40 25 9 8 21 13 28 10 15 -5 79 80 70 94 -10 16 42 42 77
38 24 -2 33 1 34 12 1 8 2 20 3 27 0 6 10 15 21 18 11 3 20 13 20 20 0 8 14
22 30 32 17 9 30 24 30 32 0 12 3 12 12 3 9 -9 17 -7 35 10 24 22 31 58 12 58
-5 0 -7 5 -4 10 3 6 11 10 16 10 6 0 8 -4 5 -8 -3 -5 8 -9 24 -9 23 0 30 5 32
25 2 20 13 29 45 41 24 8 46 23 49 33 3 10 11 18 19 18 18 0 66 26 59 32 -3 3
11 16 30 28 20 12 36 26 36 30 0 5 16 12 35 16 21 4 37 13 40 25 4 10 13 19
21 19 8 0 14 4 14 8 0 4 25 16 55 27 30 10 55 24 55 31 0 6 7 14 15 18 8 3 12
12 9 21 -4 11 0 15 16 15 11 0 18 5 15 10 -3 6 4 10 17 10 13 0 35 8 48 17 13
9 35 17 49 18 18 0 27 7 32 25 4 14 7 19 8 12 1 -10 5 -10 17 2 8 9 30 16 48
16 24 0 38 7 54 30 15 19 31 30 47 30 14 0 24 3 24 8 -3 20 3 24 29 17 15 -4
43 -8 63 -10z m1079 -115 c0 -5 -4 -10 -10 -10 -5 0 -10 5 -10 10 0 6 5 10 10
10 6 0 10 -4 10 -10z m1949 -8 c5 -10 6 -24 1 -32 -12 -20 -39 5 -33 30 7 25
19 26 32 2z m1131 -45 c0 -21 -12 -28 -27 -16 -19 16 -16 29 7 29 11 0 20 -6
20 -13z m246 -7 c0 -11 -3 -20 -7 -20 -10 0 -19 27 -12 34 12 11 19 6 19 -14z
m-1558 -9 c3 -8 -1 -12 -9 -9 -7 2 -15 10 -17 17 -3 8 1 12 9 9 7 -2 15 -10
17 -17z m-1778 -6 c0 -8 -4 -15 -10 -15 -5 0 -10 7 -10 15 0 8 5 15 10 15 6 0
10 -7 10 -15z m3160 -15 c0 -5 -7 -10 -15 -10 -8 0 -15 5 -15 10 0 6 7 10 15
10 8 0 15 -4 15 -10z m-1404 -12 c3 -4 3 -11 -1 -17 -7 -13 -45 4 -45 19 0 10
35 8 46 -2z m1579 -117 c3 -5 1 -12 -5 -16 -5 -3 -10 1 -10 9 0 18 6 21 15 7z
m-675 -88 c0 -19 -13 -9 -16 12 -1 8 2 13 7 9 5 -3 9 -12 9 -21z m434 11 c3
-8 2 -12 -4 -9 -6 3 -10 10 -10 16 0 14 7 11 14 -7z m149 1 c7 -16 -8 -29 -23
-20 -10 6 -2 35 10 35 4 0 10 -7 13 -15z m-543 -25 c0 -5 -4 -10 -10 -10 -5 0
-10 5 -10 10 0 6 5 10 10 10 6 0 10 -4 10 -10z m350 -150 c0 -5 -7 -10 -16
-10 -8 0 -12 5 -9 10 3 6 10 10 16 10 5 0 9 -4 9 -10z m-210 -135 c0 -12 -29
-3 -34 11 -11 29 -6 34 14 14 11 -11 20 -22 20 -25z m-260 -45 c0 -5 -5 -10
-11 -10 -6 0 -9 -6 -6 -14 4 -9 -3 -16 -19 -19 -30 -5 -30 0 -2 30 23 24 38
30 38 13z m221 -61 c-26 -21 -37 -19 -28 6 4 8 17 15 29 15 l23 -1 -24 -20z
m-5761 -393 c0 -3 -4 -8 -10 -11 -5 -3 -10 -1 -10 4 0 6 5 11 10 11 6 0 10 -2
10 -4z"/>
<path d="M1870 3940 c0 -5 5 -10 10 -10 6 0 10 5 10 10 0 6 -4 10 -10 10 -5 0
-10 -4 -10 -10z"/>
<path d="M1845 3910 c3 -5 8 -10 11 -10 2 0 4 5 4 10 0 6 -5 10 -11 10 -5 0
-7 -4 -4 -10z"/>
<path d="M970 2455 c0 -8 7 -15 15 -15 8 0 15 7 15 15 0 8 -7 15 -15 15 -8 0
-15 -7 -15 -15z"/>
<path d="M17438 11358 c-8 -13 -29 -36 -46 -53 -30 -30 -64 -84 -105 -165 -12
-24 -32 -54 -44 -66 -13 -12 -23 -26 -23 -33 0 -15 -35 -79 -54 -99 -39 -41
-106 -141 -106 -159 0 -10 -16 -34 -35 -53 -19 -19 -35 -39 -35 -45 0 -6 -20
-40 -45 -76 -25 -35 -45 -74 -45 -86 0 -13 -5 -23 -11 -23 -5 0 -7 -4 -4 -10
3 -5 2 -10 -3 -10 -6 0 -15 -12 -22 -27 -15 -36 -51 -102 -72 -132 -9 -13 -14
-30 -11 -37 3 -8 -6 -25 -20 -37 -23 -19 -55 -107 -39 -107 3 0 -6 -12 -20
-27 -14 -16 -29 -38 -32 -50 -4 -11 -13 -24 -20 -26 -15 -6 -56 -106 -56 -138
0 -11 -7 -22 -15 -25 -8 -4 -13 -10 -10 -14 3 -5 -1 -12 -8 -17 -18 -10 -67
-113 -67 -140 0 -12 -7 -23 -15 -27 -8 -3 -15 -14 -15 -25 0 -10 -7 -32 -15
-47 -8 -16 -18 -46 -21 -66 -4 -21 -13 -43 -20 -49 -8 -6 -14 -18 -14 -26 0
-18 -50 -117 -61 -121 -5 -2 -9 -10 -9 -18 0 -8 -11 -32 -25 -54 -18 -28 -32
-40 -48 -40 -13 0 -34 -11 -47 -25 -13 -14 -18 -25 -11 -25 7 0 11 -6 8 -12
-6 -19 -59 -9 -74 12 -13 18 -15 18 -56 0 -49 -23 -85 -25 -119 -7 -34 18
-198 11 -198 -9 0 -16 -16 -19 -25 -4 -3 6 -18 10 -32 10 -15 0 -41 5 -59 12
-25 9 -41 8 -82 -5 -28 -10 -57 -17 -65 -17 -8 0 -20 -7 -27 -15 -10 -12 -15
-12 -37 2 -33 22 -82 18 -105 -7 -22 -24 -46 -26 -54 -5 -5 13 -20 14 -88 9
-44 -4 -86 -11 -93 -16 -6 -5 -27 -6 -47 -3 -44 9 -64 -2 -39 -21 16 -12 15
-13 -14 -14 -26 0 -33 4 -33 19 0 28 -28 34 -60 11 -32 -23 -78 -26 -126 -8
-26 9 -38 8 -69 -6 -23 -11 -48 -16 -66 -12 -16 3 -34 0 -41 -7 -15 -14 -77
-37 -100 -37 -30 0 -76 -31 -102 -70 -15 -22 -22 -42 -16 -45 6 -3 10 -14 10
-23 0 -10 19 -27 48 -42 26 -13 53 -33 60 -42 16 -22 22 -22 47 -4 16 11 17
17 7 29 -10 12 -8 14 12 10 18 -4 32 2 49 21 15 16 35 26 53 26 49 0 79 22 76
53 -4 33 1 33 41 3 18 -13 51 -26 74 -30 62 -9 97 10 54 30 -17 8 -18 11 -6
28 20 27 97 15 119 -19 11 -17 21 -22 38 -17 26 6 48 25 48 41 0 16 53 13 75
-3 11 -8 24 -12 30 -9 7 2 18 -3 25 -12 14 -17 40 -20 40 -5 0 18 45 39 100
46 48 6 54 5 42 -8 -10 -13 -8 -15 15 -15 16 0 43 -3 62 -8 31 -8 33 -7 22 13
-8 16 -7 21 6 26 9 4 21 2 27 -4 5 -5 17 -10 26 -10 12 1 11 4 -5 17 -19 15
-18 15 15 8 50 -11 81 -8 107 8 15 9 65 -2 76 -17 4 -6 4 3 1 19 -7 27 -6 29
9 16 14 -11 20 -11 33 0 13 11 19 8 40 -16 25 -30 32 -28 12 4 -9 15 -9 23 1
35 14 17 36 22 26 6 -3 -5 -3 -20 1 -34 6 -23 9 -25 52 -20 26 3 60 4 76 4 16
0 34 6 40 15 10 13 14 13 38 1 23 -12 27 -12 32 0 5 13 9 12 31 -2 25 -16 34
-44 15 -44 -5 0 -10 -8 -10 -17 0 -23 -19 -78 -47 -137 -13 -28 -23 -59 -23
-71 0 -12 -7 -30 -15 -41 -8 -10 -15 -29 -15 -40 0 -12 -9 -33 -20 -47 -11
-14 -20 -32 -20 -41 0 -8 -11 -31 -24 -51 -14 -20 -32 -58 -41 -85 -9 -28 -20
-52 -25 -55 -5 -3 -12 -26 -16 -52 -4 -25 -15 -54 -26 -65 -10 -10 -18 -24
-17 -31 1 -7 -6 -32 -17 -57 -10 -25 -17 -51 -16 -57 2 -7 -2 -13 -7 -13 -6 0
-13 -17 -17 -37 -4 -21 -17 -51 -30 -68 -12 -16 -25 -43 -29 -60 -10 -42 -56
-168 -66 -180 -5 -5 -9 -18 -9 -28 0 -20 -24 -101 -47 -154 -7 -17 -13 -38
-13 -45 0 -8 -9 -23 -20 -33 -11 -10 -20 -25 -20 -34 0 -9 -9 -41 -20 -71 -11
-30 -20 -63 -20 -73 0 -11 -12 -33 -26 -50 -14 -17 -23 -38 -21 -48 3 -10 -1
-20 -8 -23 -7 -2 -15 -19 -18 -38 -8 -53 -27 -121 -37 -133 -5 -6 -12 -31 -16
-55 -4 -25 -15 -50 -24 -57 -9 -7 -25 -34 -35 -60 -10 -26 -25 -58 -32 -70
-11 -16 -12 -27 -4 -41 9 -17 6 -23 -14 -36 -18 -12 -25 -25 -24 -44 3 -40
-20 -112 -36 -119 -8 -3 -12 -9 -9 -14 3 -5 -11 -43 -31 -84 -38 -76 -62 -95
-122 -95 -14 0 -37 -6 -51 -14 -59 -30 -123 -56 -139 -56 -9 0 -25 -8 -35 -17
-17 -15 -21 -15 -29 -3 -8 13 -11 13 -22 0 -14 -18 -67 -43 -75 -36 -2 3 -26
-6 -53 -19 -27 -14 -57 -25 -67 -25 -10 0 -27 -9 -37 -20 -10 -11 -27 -20 -37
-20 -11 0 -16 -5 -13 -11 9 -14 -24 -49 -47 -49 -10 0 -21 -7 -25 -15 -3 -9
-22 -24 -43 -35 -32 -16 -37 -23 -32 -46 3 -16 1 -25 -5 -21 -21 13 -62 -10
-97 -56 -57 -74 -61 -94 -28 -115 23 -14 27 -23 24 -54 -2 -26 1 -38 10 -38
10 0 10 -2 -1 -9 -11 -7 -9 -10 8 -16 11 -3 21 -11 21 -16 0 -6 4 -8 9 -5 5 3
14 0 20 -8 9 -10 21 -12 52 -5 26 6 47 6 60 -1 10 -6 25 -8 31 -4 11 7 10 4
-9 -44 -4 -9 5 -12 33 -11 28 2 50 -5 78 -24 41 -28 111 -37 118 -15 6 18 37
1 47 -25 9 -23 29 -37 53 -37 6 0 7 7 4 16 -3 8 -2 12 4 9 6 -3 10 -12 10 -20
0 -8 5 -17 12 -21 7 -5 9 -2 5 9 -3 8 1 21 9 27 11 10 14 9 14 -8 0 -21 18
-32 51 -32 10 0 19 -4 19 -9 0 -13 130 -22 173 -12 25 6 53 5 85 -3 60 -16
156 -20 147 -6 -3 5 0 10 8 10 8 0 14 -8 13 -17 -1 -12 7 -19 24 -21 13 -2 30
-12 37 -22 8 -11 20 -16 33 -13 15 4 18 9 10 18 -5 6 -7 15 -3 18 12 13 23 7
23 -12 0 -19 24 -25 148 -37 39 -4 42 -3 42 20 0 30 7 35 40 26 18 -4 21 -8
11 -14 -24 -15 11 -26 39 -12 14 7 40 18 58 24 30 9 34 8 49 -15 14 -21 21
-24 52 -18 20 3 53 7 74 8 21 1 41 7 45 12 4 6 30 11 57 12 52 1 134 14 173
28 14 5 21 13 18 22 -3 8 -2 12 3 8 15 -9 150 24 176 42 14 10 24 25 24 33 -2
32 2 40 21 40 17 0 19 -4 12 -16 -11 -20 -4 -54 10 -54 6 0 8 9 5 19 -3 13 1
21 15 24 11 3 17 10 13 16 -3 6 -1 11 4 11 6 0 11 7 11 15 0 10 -7 14 -22 12
-13 -2 -17 -2 -10 0 6 3 12 18 12 34 0 28 4 31 45 33 13 1 21 9 23 24 2 13 10
26 18 29 8 3 14 11 14 18 0 7 7 15 15 19 17 6 21 46 5 46 -15 0 -9 78 7 91 15
13 18 39 4 39 -6 0 -6 12 -1 31 5 16 6 37 3 45 -3 8 1 14 11 14 9 0 16 -4 16
-10 0 -5 5 -10 12 -10 6 0 8 3 5 7 -4 3 -3 11 3 18 11 13 2 55 -12 55 -5 0 -6
4 -3 10 3 6 1 10 -4 10 -16 0 -13 32 4 54 9 11 15 42 15 70 1 51 24 96 50 96
6 0 8 5 5 10 -3 6 -1 10 5 10 8 0 9 10 5 29 -4 20 0 43 14 72 12 24 21 51 21
60 0 10 5 21 10 24 6 3 10 15 10 26 0 10 5 19 10 19 6 0 10 11 10 25 0 14 5
25 11 25 6 0 9 9 6 20 -3 10 1 24 9 31 11 9 11 15 -3 36 -13 19 -14 29 -6 42
6 10 9 29 6 43 -5 25 -3 26 60 33 45 5 64 11 61 19 -5 14 -64 9 -64 -5 0 -11
-44 -2 -81 17 l-26 13 17 51 c21 61 16 100 -10 93 -14 -4 -18 1 -17 24 0 15
-3 36 -7 45 -6 12 -2 17 15 20 19 2 24 10 26 45 1 23 -2 45 -7 48 -6 3 -10 13
-10 21 0 9 5 12 12 8 11 -7 9 10 -8 50 -5 14 -4 17 5 12 15 -10 64 2 56 13 -2
5 2 11 10 15 8 3 12 12 9 19 -3 10 5 16 26 20 l30 7 -25 49 -26 49 22 38 c31
56 37 62 62 57 39 -6 48 8 38 63 -9 45 -8 51 15 74 13 14 27 40 30 58 6 28 4
32 -14 32 -16 0 -39 36 -29 47 10 9 47 -13 57 -35 9 -20 14 -23 18 -12 2 8 11
22 19 32 8 9 16 33 18 54 2 29 11 45 35 65 18 15 30 33 28 41 -3 7 4 32 14 56
19 43 19 43 -1 78 -12 19 -21 37 -21 40 0 2 16 4 35 4 19 0 35 -4 35 -10 0 -5
-7 -10 -15 -10 -20 0 -19 -16 0 -24 11 -4 21 6 33 32 9 20 25 44 35 53 16 15
16 18 2 32 -23 23 -18 30 15 23 27 -5 29 -4 21 13 -12 21 -5 31 21 31 10 0 18
5 18 10 0 19 2 25 21 52 10 14 19 31 19 37 0 14 6 14 31 1 24 -13 44 -4 30 14
-13 15 -2 59 13 53 44 -19 46 -19 46 -3 0 10 13 29 30 44 27 25 28 29 16 53
l-13 26 37 -7 c33 -6 36 -5 33 14 -4 23 42 80 57 71 18 -11 59 18 65 46 4 16
15 34 25 39 10 6 24 26 31 45 7 19 18 34 24 32 14 -6 65 21 65 34 0 5 11 14
25 19 14 5 28 17 31 25 4 8 12 15 20 15 7 0 19 8 26 18 7 9 21 23 31 31 16 13
20 13 29 0 7 -10 8 -3 4 22 -6 34 -5 37 18 37 13 0 46 14 72 31 40 28 53 31
85 26 46 -8 55 -19 41 -48 -38 -76 -47 -178 -20 -229 9 -19 37 -25 39 -8 1 6
2 13 3 18 1 9 22 35 57 70 14 15 29 35 32 45 4 10 17 17 31 17 18 0 23 4 19
18 -2 10 2 24 10 31 15 12 15 103 1 161 -4 14 -8 43 -9 64 -2 25 -9 44 -21 53
-44 32 -85 74 -79 83 8 12 -22 12 -105 0 -36 -6 -87 -13 -115 -15 -79 -8 -159
-28 -174 -43 -9 -8 -25 -12 -42 -8 -22 4 -32 0 -49 -21 -19 -24 -24 -26 -42
-14 -14 8 -24 9 -31 2 -6 -6 -17 -5 -33 5 -20 14 -26 14 -54 -1 -17 -9 -53
-16 -81 -17 -28 0 -52 -5 -57 -12 -9 -16 -90 -28 -98 -15 -3 5 -10 7 -15 4 -5
-3 -6 1 -3 9 3 9 1 16 -5 16 -6 0 -13 0 -16 0 -3 0 -4 -3 -2 -6 1 -4 -14 -12
-33 -19 -36 -13 -104 -9 -95 5 8 13 -37 0 -79 -22 -31 -17 -43 -19 -57 -9 -11
6 -19 7 -19 2 0 -6 5 -13 10 -16 17 -10 12 -45 -7 -45 -9 0 -13 3 -10 7 4 3
-2 13 -14 21 -25 18 -133 44 -137 33 -1 -5 -22 -5 -45 0 -23 4 -45 5 -49 3
-14 -9 -8 -24 10 -24 10 0 13 -3 6 -8 -6 -4 -13 -15 -17 -24 -4 -12 -16 -18
-34 -17 -23 0 -24 2 -9 8 17 7 17 9 -8 36 -14 15 -26 22 -26 14 0 -10 -3 -10
-12 -1 -16 16 -31 15 -22 0 14 -23 11 -48 -5 -48 -21 0 -36 11 -44 32 -8 23
-66 38 -92 24 -11 -6 -21 -12 -23 -13 -2 0 2 -10 10 -22 17 -28 -3 -51 -30
-35 -24 15 -26 38 -6 58 23 23 12 29 -21 12 -27 -14 -30 -14 -53 11 l-25 27
22 17 c25 20 27 37 6 45 -19 8 -20 24 -1 24 17 0 66 56 66 76 0 8 6 14 14 14
8 0 17 15 20 36 4 19 14 38 22 41 29 11 44 57 32 97 -6 20 -15 36 -20 36 -5 0
-6 5 -3 10 5 8 11 8 20 0 9 -7 16 -6 25 5 7 8 19 15 26 15 8 0 16 11 20 25 3
14 10 25 14 25 8 0 21 40 25 74 1 11 -6 21 -16 23 -11 3 -16 9 -13 15 3 5 0
15 -6 23 -18 22 -4 48 21 42 16 -4 32 6 64 39 24 24 46 44 50 44 8 0 39 30 34
33 -2 2 -21 14 -41 27 -38 26 -41 40 -6 40 11 0 33 15 49 33 27 30 34 50 30
90 -1 9 5 20 14 23 9 4 14 13 11 21 -3 8 -2 11 4 8 11 -7 30 26 30 54 0 12 3
21 8 21 12 0 45 67 38 79 -4 5 3 15 14 21 12 6 20 21 20 35 0 20 5 25 25 25
20 0 25 5 25 24 0 14 5 28 10 31 6 3 10 19 10 34 0 20 6 30 20 34 14 3 19 13
18 29 -1 13 8 38 20 55 12 17 22 41 22 52 0 12 6 21 15 21 9 0 15 9 15 24 0
16 7 26 21 29 18 5 20 11 15 34 -5 19 -4 24 3 14 15 -23 44 6 36 36 -4 16 0
26 15 35 11 7 20 21 20 30 0 10 4 18 9 18 5 0 12 8 15 18 13 34 37 72 47 72 6
0 7 -6 3 -12 -5 -9 -2 -8 9 1 20 16 9 36 -26 47 -22 7 -22 7 -2 15 11 4 35 8
53 8 32 1 43 15 20 25 -9 3 -8 8 5 16 22 14 13 30 -17 30 -13 0 -29 7 -36 15
-11 13 -10 18 6 29 18 14 18 15 1 33 -9 11 -17 29 -17 41 0 12 -6 22 -14 22
-8 0 -21 2 -29 6 -8 3 -20 -5 -29 -18z m345 -2165 c-4 -9 2 -22 16 -32 24 -18
21 -45 -7 -55 -49 -18 -92 -53 -92 -76 0 -9 -11 -22 -25 -28 -17 -8 -25 -20
-25 -37 0 -14 -4 -25 -10 -25 -5 0 -10 -6 -10 -12 0 -13 -17 -32 -96 -112 -23
-22 -49 -56 -58 -73 -9 -18 -20 -33 -25 -33 -4 0 -8 -6 -9 -12 -4 -29 -10 -54
-17 -71 -4 -10 -2 -24 6 -34 13 -15 11 -16 -18 -10 -30 6 -32 4 -45 -39 -9
-32 -21 -50 -39 -60 -30 -15 -42 -38 -34 -65 5 -15 1 -19 -19 -19 -16 0 -32
-10 -46 -30 -12 -16 -28 -30 -36 -30 -9 0 -14 -11 -14 -32 0 -17 -3 -28 -7
-25 -9 9 -43 -22 -43 -40 0 -7 -5 -13 -10 -13 -14 0 -80 -72 -74 -81 2 -4 -9
-18 -26 -30 -16 -13 -30 -29 -30 -36 0 -7 -4 -13 -9 -13 -5 0 -7 -9 -4 -20 3
-11 9 -17 14 -14 5 3 9 -3 9 -12 0 -14 -3 -15 -12 -6 -16 16 -28 15 -28 -1 0
-8 -9 -25 -21 -38 -13 -15 -19 -34 -17 -54 2 -26 0 -30 -21 -27 -21 2 -22 0
-16 -38 5 -27 3 -40 -5 -40 -6 0 -9 -4 -5 -9 9 -16 -15 -24 -30 -11 -12 10
-15 10 -15 -2 0 -7 14 -22 31 -32 17 -10 28 -20 25 -23 -3 -3 -13 0 -21 7 -13
11 -18 10 -31 -8 -8 -12 -21 -22 -28 -22 -17 0 -26 -22 -26 -66 0 -18 -9 -49
-19 -68 -11 -19 -17 -37 -14 -40 3 -3 3 -13 -1 -22 -5 -13 -9 -15 -18 -6 -17
17 -41 15 -35 -2 3 -8 -3 -26 -14 -39 -23 -31 -25 -90 -2 -112 12 -12 13 -19
4 -24 -7 -5 -14 -47 -18 -107 -5 -81 -3 -106 10 -131 15 -28 15 -40 2 -128 -8
-54 -20 -104 -26 -111 -14 -17 -73 -34 -115 -34 -17 0 -37 -7 -44 -15 -7 -8
-24 -14 -39 -13 -37 2 -69 -10 -75 -30 -5 -14 -22 -17 -108 -20 -56 -1 -107
-7 -112 -12 -6 -6 -21 -10 -34 -10 -13 0 -38 -6 -55 -14 -18 -8 -57 -16 -88
-18 -36 -3 -67 -12 -86 -26 -31 -22 -106 -43 -158 -44 -31 0 -73 -15 -135 -47
-22 -12 -47 -17 -67 -14 -24 4 -34 1 -39 -11 -7 -19 -23 -20 -47 -2 -17 13
-15 18 27 85 25 39 46 78 46 86 0 7 5 17 10 20 6 3 10 23 10 45 0 21 11 60 24
87 58 118 77 163 71 173 -3 5 3 18 14 29 11 11 22 41 26 70 4 28 11 53 16 57
5 3 9 13 9 23 0 10 7 24 15 31 9 8 13 21 9 36 -4 14 -2 24 4 24 14 0 52 80 52
109 0 13 9 34 20 48 11 14 20 34 20 44 0 11 5 19 10 19 18 0 10 17 -15 30 -41
22 -32 39 18 34 57 -6 69 9 73 94 2 46 8 70 19 78 8 6 15 22 15 35 0 14 7 35
16 47 9 13 14 29 11 35 -3 7 1 24 8 37 9 16 10 31 4 42 -6 12 -2 25 16 46 14
17 23 36 20 44 -3 7 12 23 35 38 22 13 40 32 40 42 0 9 9 22 21 29 l21 11 -21
19 c-25 24 -25 18 -6 63 8 20 12 36 8 37 -5 1 3 4 17 8 21 6 25 12 24 44 -1
20 2 37 7 37 5 0 9 5 9 12 0 6 7 20 16 30 14 14 14 20 4 33 -10 13 -10 19 4
33 9 10 16 26 16 35 0 9 7 17 16 17 11 0 14 6 9 21 -5 15 -4 19 4 15 7 -4 11
1 11 13 0 14 -5 19 -15 15 -8 -4 -15 -1 -15 5 0 6 4 11 9 11 5 0 12 8 14 18 4
13 5 12 6 -4 1 -26 29 -40 37 -19 3 8 -1 28 -9 45 -14 27 -14 31 1 39 14 8 14
10 -1 25 -23 23 -11 47 19 40 19 -5 24 -2 24 13 0 22 18 43 38 43 19 0 45 28
37 40 -3 5 -2 10 4 10 6 0 8 7 5 15 -4 8 -12 15 -20 15 -16 0 -18 9 -5 29 5 7
13 11 19 7 12 -7 44 33 36 46 -3 4 -9 6 -14 3 -5 -3 -12 0 -15 6 -4 6 2 13 14
16 22 6 28 27 11 38 -22 14 -8 22 36 21 33 -1 49 4 59 17 10 13 18 15 36 9 13
-5 33 -6 44 -1 11 4 15 8 10 8 -6 1 -16 10 -23 21 -10 17 -10 20 3 20 8 0 15
-7 15 -15 0 -8 5 -15 12 -15 6 0 20 -7 30 -17 17 -15 18 -15 18 2 0 16 2 16
23 2 18 -12 24 -12 35 -1 6 7 12 18 12 25 0 7 7 8 18 4 9 -4 38 -10 65 -12 36
-4 47 -1 47 10 0 24 42 29 63 6 10 -11 23 -17 28 -13 5 3 16 0 24 -6 16 -13
84 4 97 24 5 8 11 7 19 -1 9 -9 15 -8 26 3 8 8 26 14 41 14 14 0 41 5 59 12
28 10 36 10 42 -1 7 -10 13 -8 29 9 21 23 42 20 42 -5 0 -28 21 -25 31 4 6 17
15 28 21 25 5 -4 21 -1 34 7 22 11 27 10 52 -13 33 -32 113 -59 120 -40 2 7
11 12 20 13 14 0 13 2 -3 9 -26 11 -9 12 38 1 32 -8 41 -6 55 9 8 11 19 17 24
14 4 -3 8 3 8 14 0 10 3 22 7 26 12 11 43 -33 36 -51z m382 18 c7 -13 -16 -26
-24 -14 -3 6 -13 13 -21 16 -9 3 -4 6 12 6 15 1 29 -3 33 -8z m-65 -36 c6 -8
9 -23 6 -33 -6 -16 -12 -18 -44 -12 -21 3 -46 11 -57 17 -18 11 -18 12 10 18
17 3 37 10 45 15 21 12 26 12 40 -5z m-2160 -45 c0 -5 -4 -10 -9 -10 -6 0 -13
5 -16 10 -3 6 1 10 9 10 9 0 16 -4 16 -10z m250 0 c0 -5 -8 -10 -17 -10 -15 0
-16 2 -3 10 19 12 20 12 20 0z m-356 -25 c-7 -17 -30 -20 -38 -6 -4 5 0 12 6
14 25 10 37 7 32 -8z m246 5 c0 -5 -7 -10 -15 -10 -8 0 -15 5 -15 10 0 6 7 10
15 10 8 0 15 -4 15 -10z m-455 -30 c3 -5 -1 -10 -9 -10 -9 0 -16 5 -16 10 0 6
4 10 9 10 6 0 13 -4 16 -10z m2325 0 c0 -5 -16 -10 -35 -10 -34 0 -46 -12 -25
-25 6 -3 10 -12 10 -19 0 -16 -71 -29 -84 -16 -7 7 -6 10 2 10 6 0 9 7 6 15
-4 9 0 15 9 15 9 0 19 9 22 20 5 16 15 20 51 20 24 0 44 -4 44 -10z m-1980
-15 c0 -8 -4 -15 -10 -15 -5 0 -10 7 -10 15 0 8 5 15 10 15 6 0 10 -7 10 -15z
m-915 -38 c16 -13 15 -14 -14 -9 -17 2 -34 8 -37 13 -8 14 30 10 51 -4z m203
-25 c2 -7 -5 -12 -15 -12 -24 0 -65 29 -58 41 7 11 67 -12 73 -29z m225 21
c-7 -2 -21 -2 -30 0 -10 3 -4 5 12 5 17 0 24 -2 18 -5z m-833 -63 c0 -5 -6
-10 -14 -10 -8 0 -18 5 -21 10 -3 6 3 10 14 10 12 0 21 -4 21 -10z m2490
-1020 c0 -5 -4 -10 -10 -10 -5 0 -10 5 -10 10 0 6 5 10 10 10 6 0 10 -4 10
-10z m-290 -280 c-20 -13 -53 -13 -45 0 3 6 18 10 33 10 21 0 24 -2 12 -10z
m-285 -931 c-7 -11 56 -51 71 -45 19 7 23 -63 5 -74 -11 -6 -16 -25 -17 -62
-1 -29 -4 -60 -7 -68 -3 -8 -8 -34 -10 -58 -3 -25 -13 -49 -23 -56 -9 -7 -14
-18 -11 -23 4 -6 0 -27 -8 -46 -8 -20 -12 -48 -9 -65 7 -33 -18 -100 -41 -108
-8 -4 -27 -31 -41 -62 -21 -46 -23 -60 -15 -80 13 -26 7 -42 -15 -42 -8 0 -14
-4 -14 -9 0 -6 -8 -9 -17 -8 -25 1 -73 -32 -73 -52 0 -9 -33 -40 -74 -70 -41
-29 -79 -65 -85 -79 -7 -13 -14 -22 -18 -19 -3 3 -20 -4 -37 -17 -69 -51 -120
-67 -216 -68 -49 -1 -90 -5 -90 -9 0 -5 -7 -9 -15 -9 -8 0 -15 -6 -15 -12 0
-10 -2 -10 -9 0 -13 22 -83 26 -119 8 -29 -15 -32 -15 -41 1 -8 15 -14 16 -43
5 -27 -9 -52 -9 -128 3 -52 9 -147 20 -210 26 -101 10 -208 33 -385 85 -27 8
-84 16 -127 17 -42 1 -75 4 -72 6 5 5 -86 76 -123 95 -38 19 -37 15 -20 52 34
76 51 94 82 92 24 -2 30 1 30 17 0 15 13 26 50 40 43 18 49 25 50 50 0 29 2
30 45 31 67 2 67 2 73 25 5 19 11 21 47 15 23 -3 47 -3 53 1 7 4 21 7 32 8 15
0 19 6 17 23 -3 18 2 22 23 22 43 0 83 -26 87 -57 3 -27 0 -40 -22 -83 -5 -11
-10 -26 -10 -34 0 -8 -15 -26 -32 -41 -46 -39 -47 -42 -34 -120 l11 -70 40 -6
c21 -4 41 -12 43 -18 2 -6 14 -11 27 -11 13 0 25 -5 27 -10 2 -6 26 -2 61 10
40 14 63 18 75 11 18 -10 71 12 85 35 4 8 17 14 28 14 29 0 69 30 69 52 0 17
-6 18 -72 13 -40 -3 -95 -2 -121 1 l-49 7 6 36 c3 20 6 42 6 49 -3 82 2 122
16 122 8 0 20 13 28 29 14 27 14 30 -2 36 -16 6 -16 7 0 19 10 7 22 25 27 39
7 17 18 27 31 27 11 0 27 11 36 25 9 14 23 25 31 25 8 0 17 9 20 20 3 11 9 17
15 14 5 -3 20 1 33 10 13 9 39 16 57 16 25 0 29 3 18 10 -12 8 -11 10 6 10 31
0 38 27 12 41 -20 11 -20 12 -3 22 14 7 20 7 23 -1 4 -12 47 2 138 45 29 13
72 26 96 28 92 7 118 16 115 37 -3 28 23 36 30 10 5 -21 37 -27 58 -11 6 4 36
17 68 29 31 12 55 26 51 31 -10 17 25 21 41 5 9 -9 22 -16 28 -16 7 0 6 4 -3
10 -12 8 -11 10 7 10 16 0 21 4 17 15 -8 19 14 20 35 1 19 -17 30 -12 54 27
10 15 24 27 32 27 23 0 18 -15 -10 -30 -14 -7 -25 -19 -25 -25 0 -19 36 -12
64 12 14 13 28 18 31 12 10 -14 25 0 25 23 0 15 4 18 18 12 9 -4 36 -9 59 -12
l42 -4 -5 32 c-4 22 -2 30 5 25 6 -3 9 -11 6 -16z m245 -219 c0 -5 -2 -10 -4
-10 -3 0 -8 5 -11 10 -3 6 -1 10 4 10 6 0 11 -4 11 -10z m-1250 -94 c0 -3 -4
-8 -10 -11 -5 -3 -10 -1 -10 4 0 6 5 11 10 11 6 0 10 -2 10 -4z m-340 -378 c0
-6 -6 -5 -15 2 -8 7 -15 14 -15 16 0 2 7 1 15 -2 8 -4 15 -11 15 -16z m-380
-432 c0 -9 -50 -12 -62 -5 -8 6 1 9 25 9 20 0 37 -2 37 -4z m74 -31 c-4 -8
-15 -15 -26 -15 -17 0 -18 3 -8 15 7 8 19 15 26 15 8 0 11 -6 8 -15z m656
-104 c0 -5 -10 -11 -22 -15 -36 -9 -41 -7 -28 9 13 16 50 21 50 6z"/>
<path d="M17260 9130 c0 -5 5 -10 11 -10 5 0 7 5 4 10 -3 6 -8 10 -11 10 -2 0
-4 -4 -4 -10z"/>
<path d="M16750 9110 c0 -5 7 -10 16 -10 8 0 12 5 9 10 -3 6 -10 10 -16 10 -5
0 -9 -4 -9 -10z"/>
<path d="M20623 10644 c-13 -20 -23 -39 -23 -44 0 -15 -73 -134 -96 -155 -11
-11 -35 -32 -52 -48 -18 -15 -33 -37 -33 -50 -1 -12 -3 -33 -4 -47 -2 -14 1
-33 6 -42 7 -13 4 -20 -12 -28 -12 -7 -18 -18 -15 -26 7 -18 -21 -64 -40 -64
-7 0 -21 -12 -31 -26 -10 -14 -28 -35 -40 -47 -13 -11 -23 -30 -23 -41 0 -12
-7 -30 -15 -40 -8 -11 -15 -28 -15 -38 0 -10 -7 -18 -15 -18 -8 0 -15 -6 -15
-13 0 -8 -24 -34 -52 -58 -29 -24 -55 -48 -57 -53 -2 -4 -11 -16 -21 -26 -10
-10 -21 -27 -25 -39 -3 -12 -11 -21 -16 -21 -5 0 -9 -6 -9 -14 0 -8 -6 -17
-12 -20 -10 -4 -10 -7 -1 -12 14 -6 -21 -76 -54 -108 -13 -11 -23 -27 -23 -35
0 -21 -30 -50 -45 -45 -7 3 -19 -10 -28 -34 -9 -22 -23 -42 -33 -46 -13 -5
-14 -9 -4 -21 6 -8 9 -19 5 -25 -3 -5 -1 -10 6 -10 6 0 0 -9 -15 -21 -14 -11
-26 -25 -26 -31 0 -19 -31 -47 -45 -42 -25 10 -65 -26 -65 -57 0 -19 5 -29 15
-29 8 0 15 -4 15 -10 0 -5 -7 -10 -15 -10 -30 0 -115 -110 -115 -150 0 -10
-17 -33 -38 -51 -49 -45 -80 -129 -47 -129 8 0 15 -8 15 -17 0 -13 -3 -14 -12
-5 -18 18 -45 14 -51 -7 -3 -11 -20 -26 -39 -34 -26 -11 -37 -23 -41 -45 -3
-17 -25 -50 -49 -75 -30 -30 -43 -53 -44 -74 -2 -51 -12 -78 -36 -88 -14 -6
-22 -17 -20 -28 2 -10 -3 -17 -12 -17 -21 0 -31 -21 -15 -32 10 -7 3 -8 -20
-4 -41 7 -35 -1 17 -25 30 -14 33 -18 15 -18 -13 -1 -23 4 -23 9 0 6 -9 10
-20 10 -11 0 -20 -4 -20 -9 0 -5 -9 -13 -21 -16 -15 -5 -18 -10 -10 -18 16
-16 13 -27 -7 -27 -21 0 -52 -39 -72 -90 -7 -19 -26 -49 -42 -65 -18 -21 -28
-42 -28 -63 0 -39 -46 -109 -77 -118 -19 -5 -23 -13 -23 -49 0 -35 -6 -51 -31
-77 -16 -18 -33 -45 -36 -60 -3 -16 -8 -28 -12 -28 -3 0 -6 -17 -7 -38 0 -20
-11 -59 -23 -85 -12 -27 -20 -51 -17 -54 3 -3 -6 -22 -19 -42 -20 -29 -25 -48
-25 -102 0 -45 -4 -69 -12 -72 -10 -4 -10 -7 0 -18 17 -18 16 -69 -2 -69 -9 0
-17 -16 -21 -42 -4 -24 -16 -53 -27 -65 -14 -15 -18 -28 -13 -40 5 -10 7 -24
6 -30 -1 -7 3 -13 9 -13 23 0 7 -22 -45 -60 -30 -22 -55 -46 -55 -52 0 -6 15
-26 33 -43 47 -47 57 -62 57 -84 0 -11 9 -23 22 -27 27 -8 59 26 51 56 -4 16
0 20 22 20 21 0 26 4 21 16 -3 9 3 27 14 41 11 14 20 36 20 48 0 12 9 30 19
39 11 10 23 31 26 48 4 16 13 32 21 35 8 3 14 13 14 23 0 22 28 77 54 107 17
20 27 23 61 19 24 -4 46 -14 56 -28 9 -12 18 -16 20 -10 8 22 47 2 47 -24 0
-31 19 -54 46 -53 20 0 21 1 1 9 -18 8 -18 9 6 9 14 1 29 -2 33 -6 12 -12 79
-32 89 -26 5 3 13 -1 19 -8 7 -11 8 -9 6 6 -2 12 -10 19 -21 17 -12 -2 -15 2
-10 13 4 11 13 15 27 11 11 -3 38 3 59 13 29 14 55 17 105 13 37 -2 69 -7 72
-11 8 -10 90 -11 90 0 0 9 31 7 98 -7 17 -3 22 0 22 16 0 11 4 20 9 20 10 0
27 39 23 53 -3 10 39 46 53 47 6 0 16 -13 22 -30 9 -24 17 -30 40 -30 27 1 27
1 8 15 -18 14 -16 15 30 14 88 -3 99 0 112 27 11 23 10 24 -10 18 -12 -3 -28
-11 -34 -16 -16 -13 -17 5 -3 33 8 14 15 17 28 10 21 -11 60 3 68 23 4 11 14
13 35 9 20 -4 29 -1 29 7 0 9 10 11 34 7 26 -4 39 -1 52 14 18 20 44 26 44 10
0 -5 7 -12 16 -15 12 -4 14 -1 9 14 -6 17 18 80 31 80 3 0 3 -4 0 -9 -3 -5 11
-11 32 -13 20 -3 38 -1 40 3 2 4 9 6 15 3 12 -4 57 26 86 59 17 19 46 23 56 7
3 -5 17 -10 31 -10 15 0 40 -16 66 -40 22 -22 46 -39 52 -37 17 6 68 -53 63
-74 -5 -19 25 -54 36 -42 4 3 7 1 7 -6 0 -15 56 -72 67 -69 4 1 27 -10 50 -25
24 -15 47 -27 52 -27 6 0 35 -20 66 -45 30 -25 70 -48 88 -51 29 -5 68 -20
120 -46 10 -5 22 -6 27 -3 5 3 11 1 15 -5 10 -16 28 -12 21 5 -9 25 32 18 60
-10 14 -14 33 -25 42 -25 10 0 26 -6 37 -14 29 -20 110 -38 185 -40 68 -3 111
-12 121 -28 20 -31 158 5 145 37 -4 11 2 13 27 9 49 -9 59 -13 52 -24 -11 -18
24 -43 51 -36 15 4 32 2 40 -5 15 -12 125 -21 162 -12 12 3 22 10 22 17 0 28
96 42 144 21 16 -7 18 -5 13 8 -4 11 -1 17 8 17 8 0 15 -7 15 -16 0 -13 7 -15
28 -11 15 3 44 0 64 -8 40 -13 48 -11 48 16 0 13 8 17 28 17 30 -1 72 28 72
49 0 7 13 11 30 11 32 -1 38 -15 18 -37 -11 -11 -9 -12 10 -6 16 5 22 2 22 -9
0 -17 12 -21 24 -9 4 4 26 6 49 5 38 -2 44 1 64 32 17 27 29 34 49 33 22 -2
27 3 30 27 4 36 10 42 28 27 8 -7 20 -10 26 -6 5 3 10 3 10 -2 0 -4 15 -8 33
-9 27 0 33 4 35 21 1 21 -3 22 -76 24 -156 5 -291 2 -324 -7 -18 -5 -67 -7
-108 -6 -66 3 -145 -7 -190 -23 -24 -8 -134 -3 -144 8 -6 5 -34 9 -62 9 -29 0
-56 5 -59 11 -4 6 -14 8 -22 5 -9 -4 -22 -1 -29 5 -8 6 -14 7 -14 2 0 -6 -19
-7 -49 -2 -27 4 -119 7 -204 7 -133 0 -163 3 -211 21 -30 11 -81 25 -113 31
-84 15 -148 33 -167 49 -9 7 -25 11 -37 8 -12 -3 -22 0 -25 8 -3 7 -15 16 -27
19 -12 3 -38 20 -57 39 -19 19 -55 47 -80 63 -25 15 -67 48 -93 72 -41 38 -53
44 -80 39 -26 -4 -36 0 -50 19 -17 23 -17 24 3 24 18 0 20 5 16 38 -3 25 1 43
12 55 9 10 15 32 14 51 -2 27 3 37 25 51 16 10 34 27 41 37 15 21 38 24 46 6
2 -7 3 4 1 25 -3 26 0 37 9 37 12 0 72 79 64 84 -2 1 -16 10 -31 19 -31 20
-28 37 8 37 23 0 39 14 40 35 0 6 12 9 27 7 29 -4 54 16 83 66 17 28 17 31 1
47 -21 21 -16 40 10 40 12 0 20 8 22 23 2 13 12 32 22 42 15 15 18 29 15 67
-10 98 -11 223 -3 231 10 10 -18 69 -39 81 -9 5 -14 15 -10 24 4 10 -6 24 -28
41 -18 14 -40 32 -47 40 -43 42 -78 49 -233 46 -11 0 -44 0 -73 1 -49 1 -58
-3 -102 -40 -27 -23 -52 -41 -56 -41 -20 0 -164 -178 -164 -203 0 -10 -5 -17
-10 -17 -6 0 -15 -10 -21 -22 -21 -47 -39 -73 -50 -70 -6 1 -8 -2 -4 -8 4 -6
-10 -45 -30 -88 -54 -111 -64 -219 -27 -288 6 -11 14 -45 17 -75 6 -44 13 -59
39 -81 17 -15 25 -28 19 -28 -7 0 -13 5 -13 10 0 6 -4 10 -10 10 -15 0 -12
-37 5 -54 24 -23 13 -56 -30 -95 -65 -58 -153 -114 -184 -115 -18 -1 -27 -5
-24 -13 5 -12 -4 -15 -54 -17 -10 -1 -20 -4 -23 -7 -21 -23 -110 -59 -163 -65
-63 -7 -85 -14 -109 -36 -28 -27 -107 -59 -158 -64 -31 -3 -60 -12 -115 -34
-66 -27 -176 -17 -326 30 -82 26 -111 40 -136 66 -18 19 -41 34 -52 34 -17 0
-21 6 -21 35 0 24 -6 37 -21 45 -18 10 -20 19 -16 75 3 48 10 69 27 86 27 29
43 67 36 86 -3 8 1 16 9 19 8 4 15 12 15 18 0 7 11 18 24 24 17 8 27 22 32 47
3 19 10 35 14 35 5 0 6 18 3 41 -6 39 -5 40 19 34 16 -4 29 -1 38 10 11 13 15
13 22 3 6 -10 13 -8 27 9 13 15 30 22 62 23 87 4 130 0 124 -10 -4 -6 5 -10
20 -10 30 0 59 -14 89 -41 11 -11 25 -19 30 -19 7 0 6 -4 -1 -8 -7 -4 -14 -19
-15 -32 -3 -21 3 -26 34 -34 33 -8 39 -7 57 15 11 13 20 32 21 42 0 9 3 17 6
17 4 0 13 -8 20 -17 12 -16 13 -16 14 -2 0 9 -11 21 -25 27 -20 9 -25 19 -25
46 0 19 4 46 10 60 6 17 6 26 0 26 -6 0 -10 7 -10 15 0 8 -4 15 -10 15 -5 0
-10 5 -10 11 0 24 -88 79 -126 79 -32 0 -94 26 -94 39 0 6 -6 11 -14 11 -22 0
-28 57 -9 88 26 41 61 83 70 82 4 0 8 10 8 21 0 11 12 28 26 36 14 8 33 34 43
56 15 34 15 44 5 64 -10 18 -10 26 -2 31 7 4 16 20 22 35 7 18 15 25 26 21 11
-5 15 0 15 17 0 19 2 21 10 9 13 -20 13 -4 0 20 -7 14 -7 21 2 27 7 4 19 20
27 34 9 20 19 25 34 21 13 -3 18 -1 13 6 -5 8 -2 10 8 6 9 -3 16 -1 16 5 0 6
-5 11 -11 11 -19 0 2 42 37 76 37 35 42 63 19 108 -19 37 -19 39 5 24 16 -10
22 -9 38 10 11 12 27 22 36 22 9 0 16 6 16 14 0 8 13 23 29 32 17 10 32 29 36
42 7 29 28 52 47 52 20 0 42 40 29 53 -16 16 -13 47 5 47 8 0 12 -4 9 -10 -10
-15 11 -12 24 4 9 11 10 20 1 35 -13 26 -1 52 33 70 13 7 30 28 37 47 8 20 21
34 30 34 9 0 25 9 35 20 10 11 23 20 30 20 16 0 37 42 33 66 -2 13 2 19 14 18
10 -1 14 4 11 13 -3 8 0 13 8 11 8 -2 13 4 13 15 -1 9 2 17 8 17 5 0 6 5 3 10
-3 6 -1 10 4 10 6 0 11 8 11 18 0 9 25 44 54 78 56 63 78 110 57 123 -20 13
-1 41 28 41 30 0 59 39 46 61 -5 8 -4 10 3 5 7 -4 14 3 18 18 3 14 20 34 36
44 19 13 26 22 19 27 -7 4 6 20 36 43 26 20 51 37 55 37 4 0 19 17 33 37 26
39 20 61 -8 28 -13 -16 -20 -17 -46 -7 -24 9 -28 13 -16 20 8 4 15 14 15 22 0
7 16 19 35 25 30 10 33 14 25 30 -7 14 -6 21 3 27 16 10 42 66 52 111 5 24 3
33 -9 38 -9 3 -16 13 -16 20 0 8 -7 17 -15 20 -8 4 -15 16 -15 28 0 16 -9 25
-33 34 -56 20 -80 15 -104 -24z m-98 -614 c-3 -5 -10 -10 -16 -10 -5 0 -9 5
-9 10 0 6 7 10 16 10 8 0 12 -4 9 -10z m-685 -730 c0 -5 -2 -10 -4 -10 -3 0
-8 5 -11 10 -3 6 -1 10 4 10 6 0 11 -4 11 -10z m-10 -276 c0 -8 -5 -12 -10 -9
-6 4 -8 11 -5 16 9 14 15 11 15 -7z m-390 -324 c18 -10 22 -51 7 -67 -10 -9
-47 27 -47 47 0 29 12 35 40 20z m1644 -141 c10 -15 21 -20 36 -16 16 4 19 3
11 -7 -8 -9 -7 -27 4 -62 16 -52 19 -96 8 -107 -3 -4 -7 -29 -8 -55 -1 -39 -9
-58 -39 -97 -20 -27 -35 -54 -32 -61 3 -7 -2 -18 -10 -25 -9 -7 -22 -26 -31
-43 -15 -32 -128 -146 -144 -146 -4 0 -16 -9 -26 -19 -29 -31 -84 -30 -132 2
-24 16 -41 22 -41 15 0 -21 -17 5 -24 37 -4 19 -3 25 2 17 14 -21 52 6 52 37
0 20 -2 21 -15 11 -12 -10 -15 -9 -15 5 0 11 -5 15 -15 12 -8 -4 -17 -2 -20 3
-4 6 8 10 25 10 26 0 30 3 25 19 -3 11 -8 29 -10 42 -6 30 -14 36 -25 19 -8
-12 -10 -11 -10 5 0 11 -3 31 -7 44 -5 21 -3 23 15 19 16 -5 22 -1 23 10 1 10
3 24 4 32 1 8 3 29 4 46 1 22 7 33 20 37 14 3 17 11 14 31 -4 19 -1 26 10 26
8 0 17 7 21 15 3 8 14 15 25 15 11 0 50 30 88 67 66 66 69 68 115 66 26 -1 50
2 53 7 10 17 33 11 49 -11z m-189 1 c3 -5 1 -10 -4 -10 -6 0 -11 5 -11 10 0 6
2 10 4 10 3 0 8 -4 11 -10z m-1533 -35 c0 -5 -5 -11 -11 -13 -6 -2 -11 4 -11
13 0 9 5 15 11 13 6 -2 11 -8 11 -13z m341 -578 c-2 -4 -8 -5 -13 -2 -4 3 -6
-4 -3 -15 5 -20 5 -20 -20 2 l-25 22 20 18 c20 17 22 17 34 1 7 -10 10 -21 7
-26z m-809 -42 c3 -8 1 -15 -4 -15 -6 0 -10 7 -10 15 0 8 2 15 4 15 2 0 6 -7
10 -15z m269 -10 c8 -18 -11 -31 -25 -17 -11 11 -3 32 12 32 4 0 10 -7 13 -15z
m-388 -285 c3 -5 1 -10 -4 -10 -6 0 -11 5 -11 10 0 6 2 10 4 10 3 0 8 -4 11
-10z m2205 -166 c0 -2 -7 -4 -15 -4 -8 0 -15 4 -15 10 0 5 7 7 15 4 8 -4 15
-8 15 -10z m-10 -44 c0 -5 -4 -10 -9 -10 -6 0 -13 5 -16 10 -3 6 1 10 9 10 9
0 16 -4 16 -10z m-2180 -10 c0 -5 -7 -10 -15 -10 -8 0 -15 5 -15 10 0 6 7 10
15 10 8 0 15 -4 15 -10z m335 -88 c-1 -10 0 -12 2 -6 6 17 39 24 52 11 18 -18
13 -25 -19 -32 -25 -6 -29 -9 -19 -21 20 -24 -13 -17 -51 11 -19 14 -40 25
-47 25 -7 0 -13 4 -13 9 0 15 18 23 25 11 9 -15 25 -12 25 4 0 9 8 12 24 9 15
-3 23 -11 21 -21z m735 9 c0 -6 -4 -13 -10 -16 -5 -3 -10 1 -10 9 0 9 5 16 10
16 6 0 10 -4 10 -9z m-566 -30 c6 -9 -43 -26 -51 -17 -3 2 -2 14 2 25 5 17 10
19 25 11 10 -6 21 -14 24 -19z m-44 -45 c46 -14 60 -38 25 -45 -17 -3 -18 -1
-6 13 12 14 10 16 -10 16 -13 0 -33 7 -43 15 -24 18 -23 18 34 1z m2757 -248
c-3 -8 -6 -5 -6 6 -1 11 2 17 5 13 3 -3 4 -12 1 -19z"/>
<path d="M16950 10077 c0 -10 8 -17 18 -17 9 0 13 4 7 8 -5 4 -13 11 -17 16
-5 5 -8 2 -8 -7z"/>
<path d="M16872 9880 c0 -14 2 -19 5 -12 2 6 2 18 0 25 -3 6 -5 1 -5 -13z"/>
<path d="M16620 9370 c0 -5 5 -10 10 -10 6 0 10 5 10 10 0 6 -4 10 -10 10 -5
0 -10 -4 -10 -10z"/>
<path d="M13690 8056 c-33 -24 -55 -37 -90 -50 -39 -16 -75 -44 -78 -62 -5
-24 -30 -44 -48 -37 -8 3 -26 -6 -40 -20 -14 -15 -35 -29 -45 -32 -10 -4 -19
-13 -19 -21 0 -8 -23 -40 -51 -70 -29 -30 -48 -54 -43 -54 5 0 -6 -10 -23 -21
-18 -12 -33 -25 -33 -29 0 -5 -20 -27 -45 -51 -25 -24 -45 -49 -45 -56 0 -8
-7 -16 -15 -19 -8 -4 -15 -12 -15 -18 0 -7 -12 -24 -27 -39 -68 -65 -103 -107
-147 -178 -25 -43 -52 -79 -59 -82 -6 -2 -21 -34 -32 -71 -11 -36 -23 -66 -26
-66 -10 0 -85 -133 -92 -162 -4 -14 -20 -39 -36 -55 -21 -21 -31 -43 -35 -78
-4 -26 -11 -56 -17 -66 -5 -10 -11 -60 -14 -112 -3 -51 -10 -108 -15 -126 -5
-18 -6 -39 -3 -47 3 -8 -1 -14 -11 -14 -9 0 -16 5 -16 12 0 6 -8 4 -19 -6 -11
-10 -17 -24 -15 -31 6 -13 -36 -25 -91 -25 -62 0 -87 -26 -47 -49 15 -9 13
-10 -10 -11 -14 0 -29 6 -31 13 -4 8 -12 4 -25 -11 -13 -17 -29 -24 -55 -24
-20 0 -41 -6 -48 -14 -6 -8 -17 -14 -24 -14 -7 0 -27 -13 -44 -29 -27 -26 -29
-31 -15 -39 12 -7 6 -12 -29 -22 -25 -7 -61 -13 -79 -14 -27 -1 -36 -8 -50
-36 -10 -19 -24 -35 -31 -35 -8 0 -22 -8 -32 -18 -10 -10 -23 -16 -30 -13 -15
5 -25 -14 -25 -50 0 -13 -3 -23 -7 -23 -21 3 -32 -2 -27 -15 8 -20 -33 -31
-50 -13 -8 8 -12 24 -9 40 4 20 1 27 -11 27 -19 0 -58 -20 -68 -36 -4 -6 -18
-9 -30 -7 -20 4 -26 -2 -37 -34 -16 -45 -42 -82 -56 -82 -14 0 -55 35 -55 47
0 6 8 13 18 15 9 2 0 3 -20 1 -30 -3 -38 0 -43 17 -6 19 -8 20 -26 3 -18 -16
-19 -15 -29 10 -5 15 -10 40 -10 55 0 15 -5 41 -10 58 -8 23 -7 36 5 59 19 37
19 41 -5 47 -22 6 -26 29 -7 45 6 6 31 13 55 17 35 5 42 3 42 -10 0 -9 5 -13
10 -10 8 5 7 11 -1 21 -19 23 -24 160 -6 187 11 17 12 28 5 41 -6 11 -12 35
-13 55 -1 20 -5 43 -9 52 -6 13 1 18 33 23 32 5 42 11 47 31 3 14 4 31 1 39
-3 8 1 17 10 20 11 5 12 10 4 19 -8 10 -7 17 1 25 9 9 9 12 0 12 -7 0 -12 8
-12 18 0 9 -4 23 -9 31 -8 12 -12 12 -24 2 -17 -13 -20 -7 -33 62 -7 40 -13
43 -46 26 -15 -8 -27 -8 -44 2 -21 11 -26 10 -37 -4 -6 -9 -30 -23 -52 -30
-31 -11 -42 -21 -49 -45 -5 -17 -17 -34 -26 -37 -25 -8 -34 -37 -15 -47 26
-15 17 -43 -17 -56 -38 -14 -45 -10 -26 17 8 12 17 18 21 15 3 -3 3 4 0 16 -8
32 -43 21 -66 -20 -10 -19 -25 -39 -33 -43 -18 -10 -18 -37 0 -37 10 0 14 -12
13 -37 -1 -41 -11 -57 -45 -67 -20 -7 -21 -6 -10 25 9 25 8 34 0 37 -7 2 -12
12 -12 22 0 10 -4 21 -10 25 -8 5 -8 -22 0 -60 6 -29 -2 -40 -30 -42 -17 -1
-30 2 -30 7 0 6 -6 10 -14 10 -21 0 -47 -60 -35 -82 7 -13 6 -18 -3 -18 -9 0
-9 -3 1 -12 10 -11 15 -10 25 5 14 19 36 23 36 7 0 -5 -6 -10 -14 -10 -23 0
-25 -36 -4 -49 11 -7 17 -19 14 -27 -7 -18 43 -96 58 -91 6 2 10 11 8 20 -1 9
5 28 14 42 l16 25 20 -25 c24 -31 38 -32 31 -2 -4 20 -3 20 17 -5 12 -16 28
-28 36 -28 8 0 14 -9 14 -21 0 -14 -5 -19 -15 -16 -8 4 -17 2 -20 -3 -4 -6 6
-10 22 -10 20 0 24 -3 14 -9 -11 -7 -11 -9 0 -14 12 -5 12 -7 0 -15 -8 -6 -11
-17 -6 -32 9 -28 -16 -49 -27 -22 -5 14 -7 13 -7 -5 -1 -12 4 -23 11 -25 6 -2
13 -23 14 -45 3 -64 12 -82 47 -92 22 -6 25 -9 11 -10 -11 -1 -25 -6 -32 -13
-17 -17 -15 -48 4 -48 12 0 15 -9 12 -42 l-3 -43 52 3 c43 3 52 1 57 -16 4
-11 23 -24 46 -31 22 -7 46 -21 53 -31 15 -25 29 -25 47 0 8 11 20 20 27 20 7
0 13 7 13 15 0 8 7 15 15 15 8 0 15 -6 15 -14 0 -28 19 -26 36 3 12 21 26 30
43 30 89 2 119 13 90 34 -9 7 -18 19 -21 27 -2 8 -15 15 -29 15 -17 0 -24 6
-24 20 0 17 8 20 53 23 34 2 52 -1 48 -7 -4 -5 3 -12 14 -16 11 -3 20 -11 20
-16 0 -5 9 0 20 11 11 11 20 25 20 30 0 6 7 10 15 10 8 0 15 7 15 15 0 8 5 15
10 15 6 0 13 -7 15 -15 3 -8 8 -23 12 -32 3 -10 5 -26 4 -35 -1 -11 7 -20 22
-24 29 -7 67 10 67 31 0 8 11 31 25 51 14 20 25 43 25 50 0 9 11 14 27 14 37
0 127 46 172 88 20 19 48 39 64 44 15 5 27 15 27 20 0 6 11 8 24 4 18 -4 33 2
62 29 21 19 48 35 60 35 13 0 26 5 29 10 3 6 15 10 26 10 10 0 19 4 19 9 0 5
15 14 33 21 17 6 40 16 49 21 32 16 43 10 87 -51 26 -36 51 -60 62 -60 11 0
19 -6 19 -14 0 -14 57 -46 82 -46 8 0 23 -7 34 -15 18 -14 18 -14 -3 -8 -17 4
-23 1 -23 -11 0 -19 47 -33 62 -18 7 7 21 6 44 -4 18 -8 47 -14 64 -14 16 0
30 -4 30 -8 0 -5 14 -9 30 -10 31 -2 39 -2 104 -2 45 0 116 -19 116 -32 0 -4
5 -8 10 -8 17 0 11 38 -7 44 -10 3 -1 3 19 0 38 -5 61 11 37 27 -12 8 -12 11
1 19 22 14 35 12 55 -10 29 -32 45 -26 38 15 -6 38 11 53 45 40 15 -6 14 -8
-7 -19 -31 -17 -11 -30 23 -15 25 12 30 20 27 47 -3 19 20 44 35 38 7 -3 16
-1 20 5 4 7 10 6 19 -1 10 -9 19 -6 34 9 12 12 21 24 20 29 0 4 16 11 36 16
20 4 39 15 42 22 3 8 19 14 37 14 23 0 41 9 61 30 15 16 43 36 61 45 19 9 34
20 34 25 0 6 11 10 24 10 27 0 42 15 26 25 -21 13 1 23 35 15 28 -6 38 -4 48
10 15 22 77 60 97 60 8 0 20 10 25 23 6 13 17 21 29 19 10 -2 25 4 35 12 9 9
48 37 86 62 39 25 72 50 73 55 2 5 14 9 27 9 12 0 25 7 28 14 3 8 22 18 41 22
20 3 36 10 36 16 0 9 -67 1 -85 -11 -5 -4 -31 -7 -57 -6 -25 0 -44 -3 -42 -6
6 -10 -53 -22 -66 -14 -17 10 27 43 72 56 35 9 39 13 34 35 -5 19 -2 24 11 24
10 0 35 9 56 20 20 11 43 20 49 20 7 0 24 12 37 26 13 14 38 32 55 41 17 9 35
22 39 29 4 8 14 14 22 14 7 0 17 9 20 21 4 11 19 25 33 31 l27 11 -26 7 c-42
12 -78 1 -85 -26 -9 -36 -37 -48 -58 -25 -10 11 -14 25 -10 36 5 13 3 16 -7
13 -18 -6 -24 -65 -9 -83 8 -10 1 -17 -34 -30 -25 -10 -52 -15 -61 -12 -8 4
-15 2 -15 -4 0 -6 -5 -7 -11 -4 -6 4 -19 -2 -30 -14 -11 -12 -24 -21 -30 -21
-9 0 -21 -8 -54 -37 -7 -7 -26 -13 -40 -13 -19 0 -26 -4 -22 -14 4 -9 -5 -18
-26 -26 -65 -25 -95 -40 -106 -54 -7 -8 -37 -22 -67 -31 -38 -11 -57 -22 -63
-37 -4 -12 -26 -28 -51 -37 -40 -15 -45 -21 -52 -57 -7 -34 -14 -42 -44 -53
-19 -7 -40 -23 -46 -37 -8 -16 -23 -26 -47 -30 -20 -4 -44 -15 -54 -25 -10
-11 -29 -19 -42 -19 -13 0 -28 -6 -32 -14 -4 -7 -24 -16 -43 -19 -19 -3 -53
-10 -75 -16 -22 -5 -53 -13 -70 -17 -16 -4 -32 -10 -35 -13 -9 -10 -80 -41
-95 -41 -8 0 -15 -4 -15 -10 0 -5 -8 -10 -19 -10 -21 0 -45 -23 -34 -33 3 -4
4 -7 0 -7 -3 0 -13 7 -21 16 -9 9 -21 12 -28 7 -7 -4 -17 -8 -23 -10 -5 -1
-29 -7 -53 -14 -30 -8 -50 -9 -65 -2 -49 23 -79 33 -98 33 -12 0 -23 8 -26 20
-3 11 -13 20 -22 20 -18 0 -41 18 -41 33 0 5 16 6 35 3 48 -9 44 8 -5 23 -30
9 -38 15 -33 28 4 9 -1 21 -12 29 -17 13 -16 14 15 21 l34 6 -34 13 -35 12 28
11 c16 6 33 11 38 11 5 0 9 7 9 15 0 8 4 15 10 15 5 0 25 14 43 30 19 17 43
30 54 30 10 0 31 14 46 31 15 17 27 29 27 26 0 -3 13 7 28 21 38 37 85 72 95
72 5 0 15 7 23 15 9 8 27 18 42 22 15 3 35 17 45 30 11 13 33 30 51 37 18 7
48 27 67 43 19 16 49 38 68 49 47 26 116 86 167 145 12 13 41 35 64 49 23 14
50 41 60 60 10 19 27 44 39 54 12 11 21 25 21 33 0 7 4 13 9 13 5 0 23 28 40
63 31 63 41 80 73 129 10 15 18 36 18 46 0 11 6 25 14 31 14 12 25 63 32 145
2 26 8 53 13 60 15 18 1 75 -20 81 -13 4 -19 16 -19 36 0 19 -10 39 -25 55
-14 14 -25 33 -25 42 0 15 -88 82 -107 82 -4 0 -26 9 -50 21 -70 34 -112 35
-153 5z m40 -206 c0 -5 -4 -10 -10 -10 -5 0 -10 5 -10 10 0 6 5 10 10 10 6 0
10 -4 10 -10z m173 -44 c26 -28 32 -42 33 -82 1 -27 -3 -52 -8 -55 -4 -3 -9
-22 -10 -42 -1 -26 -6 -37 -17 -37 -13 -1 -12 -3 3 -15 20 -15 20 -15 0 -15
-24 -1 -71 -39 -58 -48 5 -4 9 -23 9 -42 0 -32 -3 -35 -40 -44 -22 -5 -49 -20
-60 -33 -12 -13 -32 -23 -48 -23 -22 0 -27 -4 -27 -25 0 -27 24 -35 34 -10 3
8 10 15 16 15 6 0 8 -5 5 -11 -4 -6 -1 -9 7 -7 7 2 13 -1 13 -7 0 -5 -9 -11
-20 -12 -11 0 -23 -1 -27 -2 -5 -1 -11 -1 -15 0 -10 1 -25 -30 -19 -40 6 -10
-22 -25 -41 -22 -6 1 -14 -3 -18 -9 -3 -5 -15 -10 -26 -10 -22 0 -24 -11 -6
-28 15 -16 17 -60 1 -66 -6 -2 -9 -15 -7 -30 4 -21 1 -26 -21 -32 -14 -3 -33
-4 -41 0 -19 7 -20 36 -1 36 27 0 27 20 2 32 -22 9 -29 8 -46 -7 -11 -10 -16
-21 -11 -24 4 -3 12 -20 15 -37 6 -26 3 -34 -18 -48 -14 -9 -32 -16 -40 -16
-8 0 -24 -13 -36 -30 -15 -21 -30 -30 -50 -30 -18 0 -29 -6 -33 -18 -4 -19
-44 -32 -98 -32 -37 0 -65 -28 -78 -77 -7 -24 -24 -48 -46 -66 -19 -15 -35
-36 -35 -45 0 -12 -3 -13 -8 -4 -6 9 -17 8 -48 -6 -45 -22 -134 -29 -134 -12
0 7 -8 9 -20 5 -11 -4 -20 -2 -20 4 0 6 5 11 11 11 6 0 9 7 5 15 -4 10 1 15
14 15 11 0 20 7 20 15 0 8 5 15 10 15 16 0 11 28 -7 38 -15 9 -15 12 5 36 11
15 23 23 26 18 3 -5 19 -7 35 -4 29 4 30 5 14 28 -14 22 -11 28 10 25 4 0 7 2
7 7 5 68 12 109 26 138 9 19 14 38 10 41 -3 3 3 12 14 20 11 8 20 25 20 38 0
34 21 43 38 17 19 -29 32 -28 32 4 0 19 7 28 30 37 27 10 29 14 24 54 -3 24
-1 43 4 43 13 0 24 -47 17 -71 -5 -13 -2 -19 10 -19 12 0 15 6 10 23 -3 12 -3
17 2 12 4 -6 21 -8 38 -5 l30 7 -27 7 c-14 4 -29 15 -32 24 -3 10 -9 23 -12
31 -5 10 5 8 30 -7 21 -12 34 -17 30 -11 -4 7 0 9 13 5 15 -5 23 0 31 20 13
26 8 49 -9 39 -5 -4 -9 1 -9 10 0 9 -6 15 -12 12 -7 -2 -12 -11 -10 -21 2 -9
-1 -16 -6 -16 -13 0 -32 22 -32 37 0 16 87 16 108 0 17 -14 21 -8 24 43 3 48
31 76 56 57 8 -7 12 -4 12 10 0 11 14 33 30 50 19 20 28 37 24 47 -3 9 -1 16
5 16 6 0 8 6 5 13 -7 20 42 68 62 60 12 -4 15 -3 10 5 -5 8 3 12 26 13 18 1
44 5 58 9 22 7 22 8 4 9 -27 1 -33 8 -27 31 3 11 16 20 32 22 19 2 26 9 27 26
2 34 10 37 67 25 28 -6 54 -7 57 -3 4 7 20 11 63 19 5 0 23 -14 40 -33z m-613
-351 c-7 -9 -15 -13 -17 -11 -7 7 7 26 19 26 6 0 6 -6 -2 -15z m360 -241 c0
-12 6 -15 25 -10 15 4 25 2 25 -4 0 -16 -27 -23 -65 -16 -50 10 -46 37 8 45 4
0 7 -6 7 -15z m-2315 -463 c-9 -16 -25 -3 -18 15 4 10 9 12 15 6 6 -6 7 -15 3
-21z m1491 -136 c-8 -22 -36 -6 -36 19 0 13 3 26 7 29 10 10 36 -32 29 -48z
m-1592 5 c4 -5 -1 -13 -12 -19 -16 -9 -24 -7 -36 5 -9 9 -14 20 -10 25 6 10
42 3 58 -11z m-79 -61 c-5 -14 -1 -19 13 -19 26 0 48 -25 31 -36 -14 -8 -82
63 -73 77 10 16 35 -3 29 -22z m90 -58 c7 -12 -12 -24 -25 -16 -11 7 -4 25 10
25 5 0 11 -4 15 -9z m-152 -27 c8 -8 -3 -34 -14 -34 -5 0 -9 9 -9 20 0 19 11
26 23 14z m-10 -66 c17 12 59 13 74 1 7 -6 25 -8 41 -4 20 4 33 1 42 -10 15
-18 15 -19 -32 -38 -48 -20 -65 -17 -90 19 -11 16 -17 21 -14 10 5 -16 2 -18
-29 -14 -33 4 -36 2 -31 -18 7 -26 -10 -42 -26 -26 -8 8 -7 16 3 28 11 13 11
18 2 21 -7 3 -13 13 -13 23 0 22 41 32 53 12 5 -8 13 -10 20 -4z m372 -109
c-3 -4 -12 -6 -20 -3 -8 4 -13 10 -10 15 3 4 12 6 20 3 8 -4 13 -10 10 -15z
m11 -46 c-10 -10 -19 5 -10 18 6 11 8 11 12 0 2 -7 1 -15 -2 -18z m-186 2 c0
-8 -9 -15 -20 -15 -20 0 -26 11 -13 23 12 13 33 7 33 -8z m970 -14 c0 -6 -4
-13 -10 -16 -5 -3 -10 1 -10 9 0 9 5 16 10 16 6 0 10 -4 10 -9z m-970 -41 c0
-5 -4 -10 -10 -10 -5 0 -10 5 -10 10 0 6 5 10 10 10 6 0 10 -4 10 -10z m970
-21 c0 -5 -4 -9 -10 -9 -5 0 -10 7 -10 16 0 8 5 12 10 9 6 -3 10 -10 10 -16z
m-40 1 c0 -5 -4 -10 -10 -10 -5 0 -10 5 -10 10 0 6 5 10 10 10 6 0 10 -4 10
-10z m-850 -9 c0 -14 -18 -23 -30 -16 -6 4 -8 11 -5 16 8 12 35 12 35 0z m50
-305 c0 -3 -4 -8 -10 -11 -5 -3 -10 -1 -10 4 0 6 5 11 10 11 6 0 10 -2 10 -4z"/>
<path d="M13808 7483 c7 -3 16 -2 19 1 4 3 -2 6 -13 5 -11 0 -14 -3 -6 -6z"/>
<path d="M13545 7180 c3 -5 11 -10 16 -10 6 0 7 5 4 10 -3 6 -11 10 -16 10 -6
0 -7 -4 -4 -10z"/>
<path d="M19675 7830 c3 -5 8 -10 11 -10 2 0 4 5 4 10 0 6 -5 10 -11 10 -5 0
-7 -4 -4 -10z"/>
<path d="M19520 7795 c0 -8 7 -15 15 -15 8 0 15 7 15 15 0 8 -7 15 -15 15 -8
0 -15 -7 -15 -15z"/>
<path d="M19444 7745 c-10 -24 12 -42 34 -28 10 6 30 9 45 6 17 -3 27 -1 27 6
0 13 -9 17 -63 26 -29 5 -39 2 -43 -10z"/>
<path d="M19144 7544 c-4 -10 -12 -22 -18 -26 -6 -4 1 -8 16 -8 14 0 28 5 30
12 2 6 21 11 41 10 20 -1 39 4 43 10 5 8 -7 9 -39 6 -25 -3 -50 -1 -56 5 -7 7
-13 4 -17 -9z"/>
<path d="M16960 7360 c0 -5 5 -10 10 -10 6 0 10 5 10 10 0 6 -4 10 -10 10 -5
0 -10 -4 -10 -10z"/>
<path d="M19790 7280 c0 -5 5 -10 10 -10 6 0 10 5 10 10 0 6 -4 10 -10 10 -5
0 -10 -4 -10 -10z"/>
<path d="M18211 7246 c-14 -15 -19 -26 -12 -31 16 -9 65 17 69 38 5 26 -30 22
-57 -7z"/>
<path d="M18980 7226 c0 -9 5 -16 10 -16 6 0 10 4 10 9 0 6 -4 13 -10 16 -5 3
-10 -1 -10 -9z"/>
<path d="M19760 7230 c0 -5 5 -10 11 -10 5 0 7 5 4 10 -3 6 -8 10 -11 10 -2 0
-4 -4 -4 -10z"/>
<path d="M19010 7189 c0 -5 5 -7 10 -4 6 3 10 8 10 11 0 2 -4 4 -10 4 -5 0
-10 -5 -10 -11z"/>
<path d="M19800 7170 c0 -5 7 -10 15 -10 8 0 15 5 15 10 0 6 -7 10 -15 10 -8
0 -15 -4 -15 -10z"/>
<path d="M19316 7141 c12 -13 22 -17 28 -11 12 12 8 15 -22 25 -23 7 -23 6 -6
-14z"/>
<path d="M23136 7135 c4 -8 12 -15 19 -15 25 0 25 -17 2 -42 -29 -31 -68 -30
-83 1 -15 29 -26 12 -18 -28 5 -24 14 -33 38 -39 18 -5 34 -5 37 0 3 6 27 10
53 10 34 0 49 4 56 18 8 16 14 17 45 7 28 -8 38 -7 52 5 10 8 23 13 30 11 6
-2 15 1 19 8 5 9 2 10 -9 6 -10 -3 -17 -2 -17 4 0 7 -20 10 -54 7 -59 -3 -86
11 -61 32 27 23 15 30 -50 30 -53 0 -63 -3 -59 -15z"/>
<path d="M23451 7135 c6 -5 23 -10 40 -10 16 0 27 5 26 10 -2 6 -20 10 -40 10
-24 0 -33 -3 -26 -10z"/>
<path d="M23665 7140 c-7 -11 18 -40 34 -40 16 0 14 7 -9 30 -11 11 -22 15
-25 10z"/>
<path d="M23935 7130 c-3 -5 1 -10 9 -10 9 0 16 5 16 10 0 6 -4 10 -9 10 -6 0
-13 -4 -16 -10z"/>
<path d="M24075 7130 c-3 -5 1 -10 9 -10 9 0 16 5 16 10 0 6 -4 10 -9 10 -6 0
-13 -4 -16 -10z"/>
<path d="M23602 7105 c-13 -16 -5 -19 22 -9 9 3 13 10 10 15 -7 13 -17 11 -32
-6z"/>
<path d="M23120 7095 c0 -8 2 -15 4 -15 2 0 6 7 10 15 3 8 1 15 -4 15 -6 0
-10 -7 -10 -15z"/>
<path d="M23485 7100 c3 -5 10 -10 16 -10 5 0 9 5 9 10 0 6 -7 10 -16 10 -8 0
-12 -4 -9 -10z"/>
<path d="M14800 7050 c0 -24 15 -27 24 -4 9 22 8 24 -9 24 -8 0 -15 -9 -15
-20z"/>
<path d="M23460 7049 c0 -5 5 -7 10 -4 6 3 10 8 10 11 0 2 -4 4 -10 4 -5 0
-10 -5 -10 -11z"/>
<path d="M13960 7040 c0 -5 7 -10 16 -10 8 0 12 5 9 10 -3 6 -10 10 -16 10 -5
0 -9 -4 -9 -10z"/>
<path d="M9805 6983 c-11 -3 -29 -12 -40 -22 -11 -9 -36 -25 -55 -36 -72 -39
-172 -108 -203 -138 -18 -18 -47 -43 -64 -55 -18 -13 -33 -30 -33 -37 0 -9 -6
-12 -15 -9 -9 4 -36 -15 -71 -50 -31 -31 -61 -56 -65 -56 -4 0 -13 -16 -20
-35 -8 -21 -20 -35 -30 -35 -9 0 -24 -15 -32 -32 -9 -18 -34 -53 -57 -77 -22
-24 -40 -52 -40 -63 0 -10 -4 -16 -10 -13 -5 3 -10 0 -10 -8 0 -8 -9 -22 -19
-31 -11 -10 -22 -28 -25 -42 -4 -13 -11 -24 -17 -24 -6 0 -7 -5 -4 -10 4 -6
-6 -31 -20 -56 -18 -31 -28 -62 -29 -95 -1 -37 -4 -48 -14 -44 -11 4 -12 -4
-7 -35 7 -43 1 -48 -29 -25 -28 21 -36 19 -36 -10 0 -25 3 -26 55 -29 12 -1
21 -9 23 -21 3 -21 57 -49 74 -39 5 3 2 16 -6 29 -10 15 -12 26 -6 30 6 3 13
-2 17 -12 4 -10 9 -20 13 -23 3 -3 13 -21 23 -40 13 -28 14 -37 4 -45 -10 -7
-10 -15 -3 -30 23 -43 98 -101 117 -90 5 4 15 2 22 -3 19 -14 70 -25 62 -12
-13 20 12 9 46 -20 29 -27 35 -29 45 -16 6 9 14 13 18 9 3 -3 16 -1 29 5 12 6
33 12 47 14 15 2 25 9 24 19 -1 13 6 14 42 9 32 -5 47 -3 59 9 13 13 19 14 36
3 17 -11 23 -11 32 1 19 23 43 27 66 11 12 -9 26 -12 34 -7 6 4 28 8 47 8 24
0 35 5 35 15 3 87 37 136 70 100 12 -13 26 -18 43 -15 14 2 32 -1 39 -6 9 -8
14 -7 19 4 3 9 3 21 0 26 -4 6 4 17 18 26 19 13 29 14 45 6 16 -9 25 -8 40 6
11 9 17 21 14 26 -3 5 4 6 16 2 12 -4 21 -2 21 4 0 6 -7 11 -15 11 -8 0 -15 4
-15 9 0 5 -3 16 -6 24 -4 11 1 13 20 10 14 -3 27 -13 29 -22 4 -13 5 -13 6 2
1 11 6 15 12 11 21 -12 94 -10 111 4 10 8 18 10 22 4 4 -7 16 -6 35 1 25 9 32
7 64 -23 23 -20 37 -42 37 -57 0 -18 5 -23 25 -23 18 0 25 -5 25 -20 0 -35 34
-43 80 -19 22 12 40 25 40 30 0 5 -9 4 -20 -3 -15 -10 -24 -10 -38 -2 -22 15
-20 73 4 91 24 18 40 11 36 -17 -1 -12 3 -29 9 -37 10 -11 15 -6 30 28 15 32
23 40 36 34 41 -17 55 -17 74 1 17 15 20 26 14 58 -3 22 -10 45 -16 52 -7 8
-7 14 1 19 5 3 10 16 11 28 1 17 3 15 11 -9 10 -31 11 -31 29 -13 10 10 25 16
34 13 26 -10 61 4 62 26 1 11 -2 18 -8 15 -5 -4 -9 -1 -9 4 0 6 6 11 13 12 6
1 1 4 -12 8 -15 4 -28 18 -35 38 -16 47 -21 46 -17 -3 2 -27 -1 -44 -8 -44 -6
0 -12 -10 -12 -22 -1 -17 -2 -19 -6 -5 -2 9 -9 17 -14 17 -14 0 -11 57 6 96 8
20 19 33 25 29 5 -3 10 0 10 7 0 8 7 23 16 34 8 10 13 14 10 7 -4 -6 -2 -14 4
-18 15 -10 12 -35 -5 -35 -23 0 -18 -14 11 -27 24 -11 26 -10 21 7 -3 11 -1
20 4 20 5 0 9 -4 9 -10 0 -5 7 -10 15 -10 19 0 9 28 -19 55 l-21 20 23 3 c23
3 30 26 12 37 -6 4 -20 24 -31 47 -16 31 -25 39 -40 35 -16 -4 -19 -2 -13 16
3 12 19 36 34 52 35 39 54 88 46 120 -5 19 -3 25 6 23 14 -3 18 9 10 31 -3 8
0 17 6 19 7 2 12 22 12 45 0 40 -3 43 -42 59 -29 13 -45 15 -54 7 -9 -7 -15
-6 -21 4 -7 14 -36 21 -73 18 -16 -1 -70 -79 -70 -101 0 -6 -9 -25 -20 -40
-14 -20 -19 -37 -14 -54 11 -46 -44 -136 -115 -185 -27 -20 -34 -40 -20 -58
10 -11 6 -16 -20 -26 -34 -12 -40 -31 -15 -45 14 -8 14 -10 -1 -22 -12 -10
-19 -10 -27 -2 -18 18 -28 14 -28 -10 0 -17 -3 -19 -12 -10 -15 15 -45 16 -53
1 -4 -6 2 -13 14 -16 15 -4 21 -13 21 -34 0 -15 5 -31 10 -34 6 -3 10 -12 10
-18 0 -7 -6 -4 -14 5 -7 10 -16 15 -19 11 -4 -3 -7 4 -7 16 0 12 -4 19 -10 16
-5 -3 -10 -15 -10 -26 0 -28 -18 -24 -26 6 -7 27 -12 29 -34 15 -10 -6 -11
-10 -2 -10 6 0 12 -7 12 -16 0 -12 -6 -15 -23 -10 -17 4 -25 0 -32 -17 -6 -12
-20 -23 -32 -25 -25 -4 -32 -32 -8 -32 22 0 18 -17 -6 -23 -12 -3 -18 -10 -15
-16 4 -6 -4 -13 -18 -17 -14 -3 -27 -13 -29 -22 -4 -16 -5 -16 -6 -1 -2 29
-61 32 -61 3 0 -8 -15 -16 -40 -20 -41 -7 -64 -24 -42 -32 21 -7 13 -22 -12
-22 -15 0 -26 -7 -29 -19 -3 -14 -11 -18 -24 -15 -11 3 -25 -2 -32 -10 -8 -9
-20 -16 -27 -16 -8 0 -14 -6 -14 -12 0 -9 -3 -8 -10 2 -10 16 -100 21 -111 6
-4 -5 -24 -10 -45 -12 -22 -2 -64 -8 -94 -14 -30 -5 -73 -11 -95 -13 -39 -2
-40 -3 -39 -40 2 -45 -16 -45 -28 1 -8 31 -42 50 -76 43 -24 -4 -80 28 -102
59 -14 20 -30 30 -46 30 -21 0 -25 4 -22 23 2 16 9 21 26 20 14 -2 22 3 22 12
0 9 6 12 15 9 10 -4 15 0 15 15 0 16 -6 21 -25 21 -14 0 -28 0 -32 1 -5 0 -10
-8 -13 -18 -10 -37 -42 -85 -50 -77 -5 5 -12 27 -15 49 -6 37 -5 42 19 53 19
8 26 19 26 39 0 20 3 24 11 16 7 -7 24 -9 39 -7 17 4 32 0 43 -10 23 -23 27
-20 21 14 -4 19 -2 30 5 30 6 0 11 7 11 15 0 8 7 15 15 15 8 0 15 5 15 10 0 6
-4 10 -10 10 -14 0 -12 37 3 47 14 9 19 10 47 12 11 0 20 8 20 16 0 8 6 12 13
10 40 -14 76 94 42 129 -13 13 -13 15 4 21 11 3 31 3 46 -1 21 -5 27 -3 32 15
3 12 13 21 24 21 18 0 28 -14 43 -64 5 -16 9 -16 22 -5 9 8 22 14 28 14 6 0
29 15 51 32 31 26 37 35 27 45 -10 10 -17 10 -32 0 -38 -23 -42 -4 -7 28 16
16 32 21 60 18 28 -3 36 0 32 10 -3 8 -5 22 -5 33 0 12 -7 19 -20 19 -11 0
-20 -4 -20 -9 0 -5 -9 -12 -19 -16 -10 -3 -22 -16 -26 -28 -5 -17 -8 -18 -12
-7 -3 8 -12 23 -20 32 -8 9 -12 21 -9 26 3 6 -1 13 -10 16 -31 12 -3 25 41 20
37 -6 45 -3 57 15 15 24 28 27 28 6 0 -9 6 -12 17 -8 10 4 14 2 9 -5 -11 -19
12 -23 42 -8 16 8 46 15 68 15 61 0 74 2 74 12 0 5 -7 9 -15 9 -8 0 -15 7 -15
16 0 8 -4 12 -10 9 -18 -11 -11 26 10 52 24 31 25 43 5 43 -8 0 -15 -4 -15 -8
0 -5 -13 -7 -30 -4 -34 5 -42 34 -13 50 18 10 82 -11 96 -32 5 -8 11 -6 18 7
7 12 17 15 33 11 36 -9 44 16 13 38 -15 11 -27 26 -27 33 0 8 -9 19 -20 25
-16 8 -19 18 -15 41 5 27 2 31 -29 44 -34 14 -99 18 -141 8z m70 -284 c10 -15
-1 -22 -24 -14 -12 3 -19 11 -16 16 8 12 32 11 40 -2z m-67 -17 c18 -12 4 -42
-19 -42 -20 0 -23 8 -13 34 7 18 13 19 32 8z m-194 -123 c11 -17 12 -25 3 -40
-25 -41 -74 -27 -62 18 4 17 1 23 -12 23 -15 0 -16 2 -3 10 25 16 58 11 74
-11z m1236 -30 c0 -11 -4 -17 -10 -14 -5 3 -10 13 -10 21 0 8 5 14 10 14 6 0
10 -9 10 -21z m-1433 -65 c-3 -3 -12 -4 -19 -1 -8 3 -5 6 6 6 11 1 17 -2 13
-5z m-23 -133 c4 -5 3 -16 0 -25 -5 -14 -8 -14 -21 -1 -8 8 -11 19 -8 25 8 12
22 13 29 1z m-74 -31 c0 -5 -4 -10 -10 -10 -5 0 -10 5 -10 10 0 6 5 10 10 10
6 0 10 -4 10 -10z m-120 -20 c0 -5 -4 -10 -9 -10 -6 0 -13 5 -16 10 -3 6 1 10
9 10 9 0 16 -4 16 -10z m1094 -219 c3 -5 0 -14 -8 -20 -10 -9 -15 -8 -19 3 -9
22 15 37 27 17z m126 -26 c6 -15 17 -25 30 -25 18 0 19 -2 8 -20 -15 -23 -57
-19 -71 6 -8 13 -12 13 -34 -1 -31 -20 -37 -16 -24 19 7 16 18 26 31 26 11 0
20 5 20 10 0 21 31 9 40 -15z m-130 -49 c0 -19 -14 -28 -34 -20 -29 11 -17 26
27 33 4 0 7 -5 7 -13z m-230 -16 c0 -5 -7 -10 -15 -10 -8 0 -15 5 -15 10 0 6
7 10 15 10 8 0 15 -4 15 -10z m610 -10 c0 -5 -4 -10 -9 -10 -6 0 -13 5 -16 10
-3 6 1 10 9 10 9 0 16 -4 16 -10z m-1330 -146 c0 -14 -3 -14 -15 -4 -8 7 -15
14 -15 16 0 2 7 4 15 4 8 0 15 -7 15 -16z m390 6 c0 -5 -5 -10 -11 -10 -5 0
-7 5 -4 10 3 6 8 10 11 10 2 0 4 -4 4 -10z m-70 -47 c0 -13 -3 -13 -15 -3 -8
7 -12 16 -9 21 8 13 24 1 24 -18z m140 7 c0 -13 -30 -13 -50 0 -11 7 -7 10 18
10 17 0 32 -4 32 -10z m-310 -15 c0 -8 -4 -15 -10 -15 -5 0 -10 7 -10 15 0 8
5 15 10 15 6 0 10 -7 10 -15z m120 -6 c0 -5 -4 -9 -10 -9 -5 0 -10 7 -10 16 0
8 5 12 10 9 6 -3 10 -10 10 -16z m-503 5 c-3 -3 -12 -4 -19 -1 -8 3 -5 6 6 6
11 1 17 -2 13 -5z m304 -57 c-14 -14 -41 10 -41 36 0 20 1 20 25 -3 16 -15 22
-27 16 -33z"/>
<path d="M11510 6881 c0 -5 7 -12 16 -15 24 -9 27 -7 10 9 -17 17 -26 19 -26
6z"/>
<path d="M17113 6793 c-20 -8 -15 -31 8 -38 27 -9 38 3 17 19 -10 7 -15 16
-11 19 7 8 4 8 -14 0z"/>
<path d="M10012 6758 c5 -15 48 -18 48 -3 0 6 -11 11 -26 13 -18 3 -25 0 -22
-10z"/>
<path d="M17040 6760 c0 -5 5 -10 11 -10 5 0 7 5 4 10 -3 6 -8 10 -11 10 -2 0
-4 -4 -4 -10z"/>
<path d="M9870 6586 c0 -9 5 -16 10 -16 6 0 10 4 10 9 0 6 -4 13 -10 16 -5 3
-10 -1 -10 -9z"/>
<path d="M10990 6575 c0 -9 5 -15 11 -13 6 2 11 8 11 13 0 5 -5 11 -11 13 -6
2 -11 -4 -11 -13z"/>
<path d="M9780 6572 c0 -5 7 -16 16 -23 14 -12 16 -11 13 5 -4 20 -29 35 -29
18z"/>
<path d="M9836 6561 c-4 -7 -5 -15 -2 -18 9 -9 19 4 14 18 -4 11 -6 11 -12 0z"/>
<path d="M11517 6553 c-13 -12 -7 -41 9 -47 25 -10 34 -7 28 9 -4 8 -1 15 5
15 6 0 11 -7 11 -15 0 -8 4 -15 8 -15 18 0 20 13 5 36 -14 23 -51 32 -66 17z"/>
<path d="M9710 6420 c0 -5 5 -10 10 -10 6 0 10 5 10 10 0 6 -4 10 -10 10 -5 0
-10 -4 -10 -10z"/>
<path d="M9523 6413 c-9 -3 -9 -10 -1 -29 15 -31 27 -31 24 1 -3 29 -7 34 -23
28z"/>
<path d="M9555 6340 c3 -5 8 -10 11 -10 2 0 4 5 4 10 0 6 -5 10 -11 10 -5 0
-7 -4 -4 -10z"/>
<path d="M10925 6329 c-10 -15 3 -25 16 -12 7 7 7 13 1 17 -6 3 -14 1 -17 -5z"/>
<path d="M9585 6320 c-3 -5 -1 -10 4 -10 6 0 11 5 11 10 0 6 -2 10 -4 10 -3 0
-8 -4 -11 -10z"/>
<path d="M10960 6234 c0 -9 -8 -23 -17 -30 -16 -12 -17 -14 -2 -29 21 -21 49
-9 49 20 0 13 5 27 10 30 15 9 2 25 -21 25 -11 0 -19 -7 -19 -16z"/>
<path d="M11153 6213 c-18 -7 -16 -23 2 -23 8 0 15 7 15 15 0 8 -1 15 -2 14
-2 0 -9 -3 -15 -6z"/>
<path d="M10125 6081 c-3 -6 -3 -11 2 -11 4 0 1 -5 -7 -10 -10 -7 -11 -10 -2
-10 7 0 15 7 19 15 7 19 -2 31 -12 16z"/>
<path d="M8910 6049 c0 -5 5 -7 10 -4 6 3 10 8 10 11 0 2 -4 4 -10 4 -5 0 -10
-5 -10 -11z"/>
<path d="M13040 6015 c0 -10 29 -24 34 -17 3 6 -3 12 -14 15 -11 3 -20 4 -20
2z"/>
<path d="M8090 5971 c0 -6 5 -13 10 -16 6 -3 10 1 10 9 0 9 -4 16 -10 16 -5 0
-10 -4 -10 -9z"/>
<path d="M9220 5959 c0 -5 5 -7 10 -4 6 3 10 8 10 11 0 2 -4 4 -10 4 -5 0 -10
-5 -10 -11z"/>
<path d="M8800 5926 c0 -9 -9 -16 -21 -16 -11 0 -17 -4 -14 -10 3 -6 -1 -7 -9
-4 -9 3 -16 10 -16 15 0 5 -9 9 -21 9 -15 0 -19 -4 -15 -16 3 -9 6 -22 6 -30
0 -8 3 -13 8 -12 4 0 15 -2 24 -6 11 -5 23 -2 33 8 9 9 30 16 46 16 19 0 29 5
29 15 0 8 -9 15 -21 15 -11 0 -18 4 -14 9 3 5 1 12 -5 16 -5 3 -10 -1 -10 -9z"/>
<path d="M8650 5868 c0 -6 7 -20 17 -30 15 -17 15 -18 -3 -18 -16 -1 -15 -3 6
-15 37 -21 57 -20 37 3 -13 14 -14 21 -5 30 9 9 8 12 -5 12 -9 0 -17 7 -17 15
0 8 -7 15 -15 15 -8 0 -15 -5 -15 -12z"/>
<path d="M8530 5806 c0 -23 39 -27 50 -5 9 17 7 19 -20 19 -19 0 -30 -5 -30
-14z"/>
<path d="M10033 5766 c-9 -11 -8 -15 8 -19 14 -4 19 0 19 14 0 22 -10 24 -27
5z"/>
<path d="M10100 5769 c0 -5 5 -7 10 -4 6 3 10 8 10 11 0 2 -4 4 -10 4 -5 0
-10 -5 -10 -11z"/>
<path d="M11297 5773 c-16 -15 -6 -33 18 -33 23 0 24 2 15 20 -11 21 -22 25
-33 13z"/>
<path d="M9880 5730 c0 -5 7 -10 15 -10 8 0 15 5 15 10 0 6 -7 10 -15 10 -8 0
-15 -4 -15 -10z"/>
<path d="M11410 5719 c0 -5 5 -7 10 -4 6 3 10 8 10 11 0 2 -4 4 -10 4 -5 0
-10 -5 -10 -11z"/>
<path d="M14695 5560 c3 -5 11 -10 16 -10 6 0 7 5 4 10 -3 6 -11 10 -16 10 -6
0 -7 -4 -4 -10z"/>
<path d="M8164 5468 c3 -13 6 -27 7 -33 0 -5 4 -1 8 10 9 23 4 45 -11 45 -6 0
-8 -10 -4 -22z"/>
<path d="M16284 5459 c-3 -6 -1 -16 5 -22 8 -8 11 -5 11 11 0 24 -5 28 -16 11z"/>
<path d="M7156 5411 c-4 -7 -5 -15 -2 -18 9 -9 19 4 14 18 -4 11 -6 11 -12 0z"/>
<path d="M5737 5123 c-13 -13 -7 -21 20 -26 35 -7 47 1 32 19 -12 15 -41 19
-52 7z"/>
<path d="M8072 4930 c-7 -11 -8 -20 -3 -20 9 0 24 30 18 36 -1 2 -8 -6 -15
-16z"/>
<path d="M3193 2635 c-9 -24 1 -27 15 -5 8 13 8 20 2 20 -6 0 -13 -7 -17 -15z"/>
</g>
</svg>
